# This file uses centimeters as units for non-parametric coordinates.

mtllib cone.mtl
v 0.482320 -0.500000 -0.124345
v 0.436182 -0.500000 -0.240877
v 0.362513 -0.500000 -0.342273
v 0.265942 -0.500000 -0.422164
v 0.152537 -0.500000 -0.475528
v 0.029424 -0.500000 -0.499013
v -0.095662 -0.500000 -0.491144
v -0.214861 -0.500000 -0.452414
v -0.320683 -0.500000 -0.385257
v -0.406480 -0.500000 -0.293893
v -0.466860 -0.500000 -0.184062
v -0.498029 -0.500000 -0.062667
v -0.498029 -0.500000 0.062667
v -0.466860 -0.500000 0.184062
v -0.406481 -0.500000 0.293893
v -0.320683 -0.500000 0.385257
v -0.214862 -0.500000 0.452414
v -0.095662 -0.500000 0.491144
v 0.029423 -0.500000 0.499013
v 0.152537 -0.500000 0.475528
v 0.265942 -0.500000 0.422164
v 0.362513 -0.500000 0.342274
v 0.436182 -0.500000 0.240877
v 0.482320 -0.500000 0.124345
v 0.498028 -0.500000 0.000000
v -0.001972 0.500000 0.000000
vt 0.742146 0.187828
vt 0.719077 0.129562
vt 0.682242 0.078863
vt 0.633957 0.038918
vt 0.577254 0.012236
vt 0.515698 0.000493
vt 0.453155 0.004428
vt 0.393555 0.023793
vt 0.340644 0.057372
vt 0.297746 0.103054
vt 0.267556 0.157969
vt 0.251971 0.218667
vt 0.251971 0.281333
vt 0.267556 0.342031
vt 0.297746 0.396946
vt 0.340644 0.442628
vt 0.393555 0.476207
vt 0.453155 0.495572
vt 0.515698 0.499507
vt 0.577254 0.487764
vt 0.633957 0.461082
vt 0.682242 0.421137
vt 0.719077 0.370438
vt 0.742146 0.312172
vt 0.750000 0.250000
vt 0.250000 0.500000
vt 0.270000 0.500000
vt 0.290000 0.500000
vt 0.310000 0.500000
vt 0.330000 0.500000
vt 0.350000 0.500000
vt 0.370000 0.500000
vt 0.390000 0.500000
vt 0.410000 0.500000
vt 0.430000 0.500000
vt 0.450000 0.500000
vt 0.470000 0.500000
vt 0.490000 0.500000
vt 0.510000 0.500000
vt 0.530000 0.500000
vt 0.550000 0.500000
vt 0.570000 0.500000
vt 0.590000 0.500000
vt 0.610000 0.500000
vt 0.630000 0.500000
vt 0.650000 0.500000
vt 0.670000 0.500000
vt 0.690000 0.500000
vt 0.710000 0.500000
vt 0.730000 0.500000
vt 0.750000 0.500000
vt 0.500000 1.000000
vn 0.000000 -1.000000 0.000000
vn 0.000000 -1.000000 0.000000
vn 0.000000 -1.000000 0.000000
vn 0.000000 -1.000000 0.000000
vn 0.000000 -1.000000 0.000000
vn 0.000000 -1.000000 0.000000
vn 0.000000 -1.000000 0.000000
vn 0.000000 -1.000000 0.000000
vn 0.000000 -1.000000 0.000000
vn 0.000000 -1.000000 0.000000
vn 0.000000 -1.000000 0.000000
vn 0.000000 -1.000000 0.000000
vn 0.000000 -1.000000 0.000000
vn 0.000000 -1.000000 0.000000
vn 0.000000 -1.000000 0.000000
vn 0.000000 -1.000000 0.000000
vn 0.000000 -1.000000 0.000000
vn 0.000000 -1.000000 0.000000
vn 0.000000 -1.000000 0.000000
vn 0.000000 -1.000000 0.000000
vn 0.000000 -1.000000 0.000000
vn 0.000000 -1.000000 0.000000
vn 0.000000 -1.000000 0.000000
vn 0.000000 -1.000000 0.000000
vn 0.000000 -1.000000 0.000000
vn 0.866327 0.447214 -0.222434
vn 0.783793 0.447214 -0.430893
vn -0.000003 1.000000 -0.000001
vn 0.652009 0.447214 -0.612278
vn 0.479259 0.447214 -0.755190
vn 0.276394 0.447214 -0.850651
vn 0.056162 0.447214 -0.892662
vn -0.167599 0.447214 -0.878585
vn -0.380828 0.447214 -0.809302
vn -0.570129 0.447214 -0.689168
vn -0.723607 0.447214 -0.525731
vn -0.831617 0.447214 -0.329261
vn -0.887375 0.447213 -0.112101
vn -0.887375 0.447213 0.112101
vn -0.831618 0.447214 0.329258
vn -0.723607 0.447214 0.525731
vn -0.570130 0.447214 0.689168
vn -0.380829 0.447214 0.809302
vn -0.167599 0.447214 0.878584
vn 0.056162 0.447214 0.892662
vn 0.276393 0.447214 0.850651
vn 0.479258 0.447214 0.755190
vn 0.652009 0.447214 0.612277
vn 0.783793 0.447214 0.430894
vn 0.866327 0.447214 0.222435
vn 0.894427 0.447214 0.000000
s 1
usemtl initialShadingGroup
f 1/1/1 25/25/2 2/2/3
f 25/25/2 24/24/4 2/2/3
f 24/24/4 23/23/5 2/2/3
f 23/23/5 22/22/6 2/2/3
f 22/22/6 21/21/7 2/2/3
f 21/21/7 20/20/8 2/2/3
f 20/20/8 19/19/9 2/2/3
f 19/19/9 18/18/10 2/2/3
f 18/18/10 17/17/11 2/2/3
f 17/17/11 16/16/12 2/2/3
f 16/16/12 15/15/13 2/2/3
f 15/15/13 14/14/14 2/2/3
f 14/14/14 13/13/15 2/2/3
f 13/13/15 12/12/16 2/2/3
f 12/12/16 11/11/17 2/2/3
f 11/11/17 10/10/18 2/2/3
f 10/10/18 9/9/19 2/2/3
f 9/9/19 8/8/20 2/2/3
f 8/8/20 7/7/21 2/2/3
f 7/7/21 6/6/22 2/2/3
f 6/6/22 5/5/23 2/2/3
f 5/5/23 4/4/24 2/2/3
f 4/4/24 3/3/25 2/2/3
s 2
f 1/26/26 2/27/27 26/52/28
f 2/27/27 3/28/29 26/52/28
f 3/28/29 4/29/30 26/52/28
f 4/29/30 5/30/31 26/52/28
f 5/30/31 6/31/32 26/52/28
f 6/31/32 7/32/33 26/52/28
f 7/32/33 8/33/34 26/52/28
f 8/33/34 9/34/35 26/52/28
f 9/34/35 10/35/36 26/52/28
f 10/35/36 11/36/37 26/52/28
f 11/36/37 12/37/38 26/52/28
f 12/37/38 13/38/39 26/52/28
f 13/38/39 14/39/40 26/52/28
f 14/39/40 15/40/41 26/52/28
f 15/40/41 16/41/42 26/52/28
f 16/41/42 17/42/43 26/52/28
f 17/42/43 18/43/44 26/52/28
f 18/43/44 19/44/45 26/52/28
f 19/44/45 20/45/46 26/52/28
f 20/45/46 21/46/47 26/52/28
f 21/46/47 22/47/48 26/52/28
f 22/47/48 23/48/49 26/52/28
f 23/48/49 24/49/50 26/52/28
f 24/49/50 25/50/51 26/52/28
f 25/50/51 1/51/26 26/52/28
