# This file uses centimeters as units for non-parametric coordinates.

mtllib fa-minus.mtl
v 0.415721 0.056726 0.057577
v -0.415719 -0.056649 0.057577
v 0.359034 -0.113349 0.057577
v -0.359029 0.113427 0.057577
v -0.087143 -0.113340 0.057577
v -0.087143 0.113418 0.057577
v 0.388723 -0.104947 0.057577
v -0.087143 -0.104947 0.057577
v 0.354587 -0.113426 0.057577
v 0.354586 -0.104947 0.057577
v 0.133721 -0.113340 0.057577
v 0.133721 -0.104947 0.057577
v 0.244154 -0.113340 0.057577
v 0.244154 -0.104947 0.057577
v 0.023289 -0.113340 0.057577
v 0.023289 -0.104947 0.057577
v 0.354586 0.113418 0.057577
v 0.415721 0.004835 0.057577
v 0.354586 0.004835 0.057577
v 0.133721 0.113418 0.057577
v 0.133721 0.004835 0.057577
v 0.244154 0.004835 0.057577
v 0.244154 0.113418 0.057577
v -0.087143 0.004835 0.057577
v 0.023289 0.004835 0.057577
v 0.023289 0.113418 0.057577
v -0.388721 -0.104947 0.057577
v -0.197576 -0.113340 0.057577
v -0.197576 -0.104947 0.057577
v -0.308008 -0.113340 0.057577
v -0.308008 -0.104947 0.057577
v -0.415720 0.004835 0.057577
v -0.197576 0.004835 0.057577
v -0.308008 0.004835 0.057577
v -0.197576 0.113418 0.057577
v -0.308008 0.113418 0.057577
v -0.415720 0.004835 -0.057577
v -0.359029 0.113427 -0.057577
v -0.308008 0.113418 -0.057577
v -0.308008 0.004835 -0.057577
v -0.087143 0.004835 -0.057577
v -0.087143 0.113418 -0.057577
v 0.023289 0.113418 -0.057577
v 0.023289 0.004835 -0.057577
v 0.023289 -0.113340 -0.057577
v -0.087143 -0.113340 -0.057577
v -0.087143 -0.104947 -0.057577
v 0.023289 -0.104947 -0.057577
v 0.388723 -0.104947 -0.057577
v 0.359034 -0.113349 -0.057577
v 0.354587 -0.113426 -0.057577
v 0.354586 -0.104947 -0.057577
v 0.244154 -0.113340 -0.057577
v 0.133721 -0.113340 -0.057577
v 0.133721 -0.104947 -0.057577
v 0.244154 -0.104947 -0.057577
v 0.415721 0.056726 -0.057577
v 0.415721 0.004835 -0.057577
v 0.354586 0.004835 -0.057577
v 0.354586 0.113418 -0.057577
v 0.133721 0.004835 -0.057577
v 0.133721 0.113418 -0.057577
v 0.244154 0.113418 -0.057577
v 0.244154 0.004835 -0.057577
v -0.308008 -0.113340 -0.057577
v -0.388721 -0.104947 -0.057577
v -0.308008 -0.104947 -0.057577
v -0.197576 -0.113340 -0.057577
v -0.197576 -0.104947 -0.057577
v -0.415719 -0.056649 -0.057577
v -0.197576 0.004835 -0.057577
v -0.197576 0.113418 -0.057577
vt -0.441782 3.347161
vt -0.504282 3.466868
vt -0.560530 3.466868
vt -0.560530 3.347161
vt -0.804024 3.347161
vt -0.804024 3.466868
vt -0.925771 3.466868
vt -0.925771 3.347161
vt -0.925771 3.216878
vt -0.804024 3.216878
vt -0.804024 3.226132
vt -0.925771 3.226132
vt -1.328646 3.226132
vt -1.295914 3.216878
vt -1.291011 3.216878
vt -1.291011 3.226132
vt -1.169264 3.216878
vt -1.047517 3.216878
vt -1.047517 3.226132
vt -1.169264 3.226132
vt -1.358410 3.404369
vt -1.358410 3.347161
vt -1.291011 3.347161
vt -1.291011 3.466868
vt -1.047517 3.347161
vt -1.047517 3.466868
vt -1.169264 3.466868
vt -1.169264 3.347161
vt -0.560530 3.216878
vt -0.471548 3.226132
vt -0.560530 3.226132
vt -0.682277 3.216878
vt -0.682277 3.226132
vt -0.441782 3.279377
vt -0.682277 3.347161
vt -0.682277 3.466868
vt -0.441782 3.347161
vt -0.560530 3.347161
vt -0.560530 3.466868
vt -0.504282 3.466868
vt -0.804024 3.347161
vt -0.925771 3.347161
vt -0.925771 3.466868
vt -0.804024 3.466868
vt -0.925771 3.216878
vt -0.925771 3.226132
vt -0.804024 3.226132
vt -0.804024 3.216878
vt -1.328646 3.226132
vt -1.291011 3.226132
vt -1.291011 3.216878
vt -1.295914 3.216878
vt -1.169264 3.216878
vt -1.169264 3.226132
vt -1.047517 3.226132
vt -1.047517 3.216878
vt -1.358410 3.404369
vt -1.291011 3.466868
vt -1.291011 3.347161
vt -1.358410 3.347161
vt -1.047517 3.347161
vt -1.169264 3.347161
vt -1.169264 3.466868
vt -1.047517 3.466868
vt -0.560530 3.216878
vt -0.560530 3.226132
vt -0.471548 3.226132
vt -0.682277 3.226132
vt -0.682277 3.216878
vt -0.441782 3.279377
vt -0.682277 3.347161
vt -0.682277 3.466868
vt -0.441782 3.347161
vt -0.504282 3.466868
vt -0.560530 3.466868
vt -0.804024 3.466868
vt -0.925771 3.466868
vt -0.925771 3.216878
vt -0.804024 3.216878
vt -1.328646 3.226132
vt -1.295914 3.216878
vt -1.291011 3.216878
vt -1.169264 3.216878
vt -1.047517 3.216878
vt -1.358410 3.404369
vt -1.358410 3.347161
vt -1.291011 3.466868
vt -1.047517 3.466868
vt -1.169264 3.466868
vt -0.560530 3.216878
vt -0.471548 3.226132
vt -0.682277 3.216878
vt -0.441782 3.279377
vt -0.682277 3.466868
vn 0.000000 -0.000000 -1.000000
vn 0.000000 -0.000000 -1.000000
vn 0.000000 -0.000000 -1.000000
vn 0.000000 -0.000000 -1.000000
vn -0.000000 0.000000 -1.000000
vn -0.000000 0.000000 -1.000000
vn 0.000000 0.000000 -1.000000
vn -0.000000 0.000000 -1.000000
vn 0.000000 0.000001 -1.000000
vn 0.000000 0.000001 -1.000000
vn 0.000000 -0.000000 -1.000000
vn 0.000000 -0.000000 -1.000000
vn 0.000000 0.000000 -1.000000
vn 0.000000 -0.000000 -1.000000
vn -0.000000 0.000000 -1.000000
vn 0.000000 -0.000000 -1.000000
vn 0.000000 0.000001 -1.000000
vn 0.000000 0.000001 -1.000000
vn -0.000000 0.000000 -1.000000
vn 0.000000 0.000000 -1.000000
vn 0.000000 -0.000000 -1.000000
vn -0.000000 0.000000 -1.000000
vn 0.000000 0.000000 -1.000000
vn -0.000000 0.000000 -1.000000
vn 0.000000 -0.000000 -1.000000
vn 0.000000 0.000000 -1.000000
vn -0.000000 0.000000 -1.000000
vn 0.000000 0.000000 -1.000000
vn -0.000000 0.000001 -1.000000
vn -0.000000 0.000000 -1.000000
vn -0.000000 0.000000 -1.000000
vn 0.000000 0.000001 -1.000000
vn -0.000000 0.000000 -1.000000
vn -0.000000 -0.000000 -1.000000
vn -0.000000 0.000000 -1.000000
vn 0.000000 -0.000000 -1.000000
vn 0.000000 0.000000 1.000000
vn -0.000000 0.000000 1.000000
vn -0.000000 0.000000 1.000000
vn -0.000000 0.000000 1.000000
vn 0.000000 0.000000 1.000000
vn 0.000000 0.000000 1.000000
vn 0.000000 0.000000 1.000000
vn 0.000000 0.000000 1.000000
vn 0.000000 0.000000 1.000000
vn 0.000000 0.000000 1.000000
vn 0.000000 0.000000 1.000000
vn 0.000000 0.000000 1.000000
vn 0.000000 0.000000 1.000000
vn 0.000000 0.000000 1.000000
vn -0.000000 0.000000 1.000000
vn -0.000000 0.000000 1.000000
vn 0.000000 0.000000 1.000000
vn 0.000000 0.000000 1.000000
vn 0.000000 0.000000 1.000000
vn 0.000000 0.000000 1.000000
vn 0.000000 0.000000 1.000000
vn 0.000000 0.000000 1.000000
vn 0.000000 0.000000 1.000000
vn 0.000000 0.000000 1.000000
vn 0.000000 0.000000 1.000000
vn 0.000000 0.000000 1.000000
vn 0.000000 0.000000 1.000000
vn 0.000000 0.000000 1.000000
vn 0.000000 0.000000 1.000000
vn 0.000000 0.000000 1.000000
vn 0.000000 0.000000 1.000000
vn 0.000000 0.000000 1.000000
vn 0.000000 0.000000 1.000000
vn 0.000000 0.000000 1.000000
vn 0.000000 0.000000 1.000000
vn 0.000000 0.000000 1.000000
vn -0.948686 0.316219 0.000000
vn -0.886469 0.462789 0.000000
vn -0.948686 0.316219 0.000000
vn -0.886469 0.462789 0.000000
vn 0.000168 1.000000 0.000000
vn 0.000053 1.000000 0.000000
vn 0.000168 1.000000 0.000000
vn 0.000053 1.000000 0.000000
vn 0.000000 1.000000 0.000000
vn 0.000000 1.000000 0.000000
vn 0.000000 1.000000 0.000000
vn 0.000000 1.000000 0.000000
vn 0.000000 -1.000000 0.000000
vn 0.000000 -1.000000 0.000000
vn 0.000000 -1.000000 0.000000
vn 0.000000 -1.000000 0.000000
vn 0.272310 -0.962210 0.000000
vn 0.241062 -0.970510 0.000000
vn 0.272310 -0.962210 0.000000
vn 0.241062 -0.970510 0.000000
vn -0.000079 -1.000000 0.000000
vn -0.000079 -1.000000 0.000000
vn -0.000389 -1.000000 0.000000
vn 0.000000 -1.000000 0.000000
vn -0.000389 -1.000000 0.000000
vn 0.000000 -1.000000 0.000000
vn 1.000000 0.000000 0.000000
vn 0.986343 -0.164707 0.000000
vn 1.000000 0.000000 0.000000
vn 0.986342 -0.164708 0.000000
vn 0.679956 0.733253 0.000000
vn 0.679956 0.733253 0.000000
vn 0.679956 0.733253 0.000000
vn 0.679956 0.733253 0.000000
vn 0.971068 -0.238804 0.000000
vn 0.971068 -0.238805 0.000000
vn 0.000000 1.000000 0.000000
vn 0.000000 1.000000 0.000000
vn 0.000000 1.000000 0.000000
vn 0.000000 1.000000 0.000000
vn 0.000000 1.000000 0.000000
vn 0.000000 1.000000 0.000000
vn -0.043868 -0.999037 0.000000
vn -0.103432 -0.994636 0.000000
vn -0.043868 -0.999037 0.000000
vn -0.103432 -0.994637 0.000000
vn 0.000000 -1.000000 0.000000
vn 0.000000 -1.000000 0.000000
vn -0.872878 -0.487939 0.000000
vn -0.971064 -0.238820 0.000000
vn -0.872878 -0.487939 0.000000
vn -0.971064 -0.238820 0.000000
vn 0.000000 1.000000 0.000000
vn 0.000000 1.000000 0.000000
s 1
usemtl initialShadingGroup
f 37/1/1 38/2/2 40/4/3
f 40/4/3 38/2/2 39/3/4
f 41/5/5 42/6/6 44/8/7
f 44/8/7 42/6/6 43/7/8
f 45/9/9 46/10/10 48/12/11
f 48/12/11 46/10/10 47/11/12
f 51/15/13 52/16/14 50/14/15
f 49/13/16 50/14/15 52/16/14
f 53/17/17 54/18/18 56/20/19
f 56/20/19 54/18/18 55/19/20
f 51/15/13 53/17/17 52/16/14
f 52/16/14 53/17/17 56/20/19
f 54/18/18 45/9/9 55/19/20
f 55/19/20 45/9/9 48/12/11
f 58/22/21 59/23/22 57/21/23
f 57/21/23 59/23/22 60/24/24
f 58/22/21 49/13/16 59/23/22
f 59/23/22 49/13/16 52/16/14
f 61/25/25 62/26/26 64/28/27
f 64/28/27 62/26/26 63/27/28
f 56/20/19 55/19/20 64/28/27
f 64/28/27 55/19/20 61/25/25
f 52/16/14 56/20/19 59/23/22
f 59/23/22 56/20/19 64/28/27
f 63/27/28 60/24/24 64/28/27
f 64/28/27 60/24/24 59/23/22
f 48/12/11 47/11/12 44/8/7
f 44/8/7 47/11/12 41/5/5
f 55/19/20 48/12/11 61/25/25
f 61/25/25 48/12/11 44/8/7
f 43/7/8 62/26/26 44/8/7
f 44/8/7 62/26/26 61/25/25
f 65/29/29 66/30/30 67/31/31
f 46/10/10 68/32/32 47/11/12
f 47/11/12 68/32/32 69/33/33
f 68/32/32 65/29/29 69/33/33
f 69/33/33 65/29/29 67/31/31
f 37/1/1 40/4/3 70/34/34
f 67/31/31 66/30/30 40/4/3
f 66/30/30 70/34/34 40/4/3
f 71/35/35 41/5/5 69/33/33
f 69/33/33 41/5/5 47/11/12
f 40/4/3 71/35/35 67/31/31
f 67/31/31 71/35/35 69/33/33
f 72/36/36 42/6/6 71/35/35
f 71/35/35 42/6/6 41/5/5
f 39/3/4 72/36/36 40/4/3
f 40/4/3 72/36/36 71/35/35
s 9
f 32/37/37 34/38/38 4/40/39
f 4/40/39 34/38/38 36/39/40
f 24/41/41 25/42/42 6/44/43
f 6/44/43 25/42/42 26/43/44
f 15/45/45 16/46/46 5/48/47
f 5/48/47 16/46/46 8/47/48
f 9/51/49 3/52/50 10/50/51
f 7/49/52 10/50/51 3/52/50
f 13/53/53 14/54/54 11/56/55
f 11/56/55 14/54/54 12/55/56
f 9/51/49 10/50/51 13/53/53
f 13/53/53 10/50/51 14/54/54
f 11/56/55 12/55/56 15/45/45
f 15/45/45 12/55/56 16/46/46
f 17/58/57 19/59/58 1/57/59
f 1/57/59 19/59/58 18/60/60
f 18/60/60 19/59/58 7/49/52
f 7/49/52 19/59/58 10/50/51
f 21/61/61 22/62/62 20/64/63
f 20/64/63 22/62/62 23/63/64
f 14/54/54 22/62/62 12/55/56
f 12/55/56 22/62/62 21/61/61
f 10/50/51 19/59/58 14/54/54
f 14/54/54 19/59/58 22/62/62
f 23/63/64 22/62/62 17/58/57
f 17/58/57 22/62/62 19/59/58
f 16/46/46 25/42/42 8/47/48
f 8/47/48 25/42/42 24/41/41
f 12/55/56 21/61/61 16/46/46
f 16/46/46 21/61/61 25/42/42
f 26/43/44 25/42/42 20/64/63
f 20/64/63 25/42/42 21/61/61
f 30/65/65 31/66/66 27/67/67
f 5/48/47 8/47/48 28/69/68
f 28/69/68 8/47/48 29/68/69
f 28/69/68 29/68/69 30/65/65
f 30/65/65 29/68/69 31/66/66
f 31/66/66 34/38/38 27/67/67
f 27/67/67 34/38/38 2/70/70
f 34/38/38 32/37/37 2/70/70
f 33/71/71 29/68/69 24/41/41
f 24/41/41 29/68/69 8/47/48
f 34/38/38 31/66/66 33/71/71
f 33/71/71 31/66/66 29/68/69
f 35/72/72 33/71/71 6/44/43
f 6/44/43 33/71/71 24/41/41
f 36/39/40 34/38/38 35/72/72
f 35/72/72 34/38/38 33/71/71
s 17
f 32/73/73 4/74/74 37/1/75
f 37/1/75 4/74/74 38/2/76
s 18
f 4/74/77 36/75/78 38/2/79
f 38/2/79 36/75/78 39/3/80
f 6/76/81 26/77/82 42/6/83
f 42/6/83 26/77/82 43/7/84
s 20
f 15/78/85 5/79/86 45/9/87
f 45/9/87 5/79/86 46/10/88
f 7/80/89 3/81/90 49/13/91
f 49/13/91 3/81/90 50/14/92
f 3/81/90 9/82/93 50/14/92
f 50/14/92 9/82/93 51/15/94
f 13/83/95 11/84/96 53/17/97
f 53/17/97 11/84/96 54/18/98
f 9/82/93 13/83/95 51/15/94
f 51/15/94 13/83/95 53/17/97
f 11/84/96 15/78/85 54/18/98
f 54/18/98 15/78/85 45/9/87
s 23
f 1/85/99 18/86/100 57/21/101
f 57/21/101 18/86/100 58/22/102
s 24
f 17/87/103 1/85/104 60/24/105
f 60/24/105 1/85/104 57/21/106
s 23
f 18/86/100 7/80/107 58/22/102
f 58/22/102 7/80/107 49/13/108
s 18
f 20/88/109 23/89/110 62/26/111
f 62/26/111 23/89/110 63/27/112
f 23/89/110 17/87/113 63/27/112
f 63/27/112 17/87/113 60/24/114
f 26/77/82 20/88/109 43/7/84
f 43/7/84 20/88/109 62/26/111
s 20
f 30/90/115 27/91/116 65/29/117
f 65/29/117 27/91/116 66/30/118
f 5/79/86 28/92/119 46/10/88
f 46/10/88 28/92/119 68/32/120
f 28/92/119 30/90/115 68/32/120
f 68/32/120 30/90/115 65/29/117
s 17
f 27/91/121 2/93/122 66/30/123
f 66/30/123 2/93/122 70/34/124
f 2/93/122 32/73/73 70/34/124
f 70/34/124 32/73/73 37/1/75
s 18
f 35/94/125 6/76/81 72/36/126
f 72/36/126 6/76/81 42/6/83
f 36/75/78 35/94/125 39/3/80
f 39/3/80 35/94/125 72/36/126
