# This file uses centimeters as units for non-parametric coordinates.

mtllib test.mtl
g default
v -0.500000 -0.300000 -0.700000
v -0.700000 0.000000 0.000000
v 0.000000 -0.300000 0.000000
v 0.000000 0.300000 -0.300000
vt 0.025065 0.044040
vt 0.041078 0.967484
vt 0.948425 0.033033
vt 0.361115 0.598516
vt 0.946102 0.598472
vn -0.508694 0.729128 -0.457824
vn -0.508694 0.729128 -0.457824
vn -0.508694 0.729128 -0.457824
vn -0.144611 -0.337425 0.930179
vn -0.243596 -0.568390 0.785872
vn -0.379195 -0.884788 0.270853
vn 0.781404 -0.279073 -0.558146
vn 0.781404 -0.279073 -0.558146
vn 0.781404 -0.279073 -0.558146
vn 0.188237 0.439219 0.878438
s off
g pPyramid1
usemtl initialShadingGroup
f 1/1/1 2/3/2 4/5/3
s 1
f 3/4/4 2/2/5 1/1/6
s off
f 3/4/7 1/1/8 4/5/9
s 1
f 3/4/4 4/5/10 2/2/5
