# This file uses centimeters as units for non-parametric coordinates.

mtllib fa-arrows-h.mtl
v 0.302343 -0.075588 0.057577
v -0.302339 -0.075588 0.057577
v -0.302339 0.075584 0.057577
v -0.529098 -0.000002 0.057577
v -0.302318 -0.149030 0.057577
v -0.340232 -0.188967 0.057577
v -0.340231 0.188967 0.057577
v 0.302343 0.075584 0.057577
v 0.529098 -0.000002 0.057577
v 0.302322 0.149030 0.057577
v 0.340234 0.188967 0.057577
v 0.340234 -0.188967 0.057577
v 0.479526 0.064925 0.057577
v 0.479526 -0.064926 0.057577
v 0.523298 -0.019812 0.057577
v 0.479526 -0.019812 0.057577
v -0.293500 -0.075588 0.057577
v -0.293500 0.075584 0.057577
v 0.414859 -0.129593 0.057577
v 0.302334 -0.129593 0.057577
v 0.369136 -0.175464 0.057577
v 0.369094 -0.129593 0.057577
v 0.148229 -0.075588 0.057577
v 0.148229 0.075584 0.057577
v 0.148229 -0.019812 0.057577
v 0.369094 -0.019812 0.057577
v 0.258662 -0.075588 0.057577
v 0.258662 -0.019812 0.057577
v 0.369136 0.175460 0.057577
v 0.454481 0.089971 0.057577
v 0.369094 0.089971 0.057577
v 0.302343 0.089971 0.057577
v 0.258662 0.075584 0.057577
v -0.072635 -0.075588 0.057577
v -0.072635 0.075584 0.057577
v -0.072635 -0.019812 0.057577
v 0.037796 -0.075588 0.057577
v 0.037796 -0.019812 0.057577
v 0.037796 0.075584 0.057577
v -0.293500 -0.019812 0.057577
v -0.183068 -0.075588 0.057577
v -0.183068 -0.019812 0.057577
v -0.183068 0.075584 0.057577
v -0.302330 -0.129593 0.057577
v -0.414858 -0.129593 0.057577
v -0.403932 -0.140519 0.057577
v -0.403932 -0.129593 0.057577
v -0.514326 -0.030106 0.057577
v -0.514326 0.030106 0.057577
v -0.514365 -0.019812 0.057577
v -0.403932 -0.019812 0.057577
v -0.454479 0.089971 0.057577
v -0.302339 0.089971 0.057577
v -0.403932 0.089971 0.057577
v -0.403932 0.140517 0.057577
v -0.523297 -0.019812 0.057577
v -0.523297 -0.019812 -0.057577
v -0.529098 -0.000002 -0.057577
v -0.514326 0.030106 -0.057577
v -0.514365 -0.019812 -0.057577
v 0.479526 0.064925 -0.057577
v 0.529098 -0.000002 -0.057577
v 0.523298 -0.019812 -0.057577
v 0.479526 -0.019812 -0.057577
v 0.479526 -0.064926 -0.057577
v -0.293500 -0.019812 -0.057577
v -0.293500 0.075584 -0.057577
v -0.183068 0.075584 -0.057577
v -0.183068 -0.019812 -0.057577
v 0.369136 -0.175464 -0.057577
v 0.340234 -0.188967 -0.057577
v 0.302334 -0.129593 -0.057577
v 0.369094 -0.129593 -0.057577
v 0.414859 -0.129593 -0.057577
v 0.302343 0.089971 -0.057577
v 0.302322 0.149030 -0.057577
v 0.340234 0.188967 -0.057577
v 0.369136 0.175460 -0.057577
v 0.369094 0.089971 -0.057577
v 0.258662 -0.075588 -0.057577
v 0.148229 -0.075588 -0.057577
v 0.148229 -0.019812 -0.057577
v 0.258662 -0.019812 -0.057577
v 0.369094 -0.019812 -0.057577
v 0.302343 -0.075588 -0.057577
v 0.454481 0.089971 -0.057577
v 0.148229 0.075584 -0.057577
v 0.258662 0.075584 -0.057577
v 0.302343 0.075584 -0.057577
v -0.072635 -0.019812 -0.057577
v -0.072635 0.075584 -0.057577
v 0.037796 0.075584 -0.057577
v 0.037796 -0.019812 -0.057577
v 0.037796 -0.075588 -0.057577
v -0.072635 -0.075588 -0.057577
v -0.183068 -0.075588 -0.057577
v -0.293500 -0.075588 -0.057577
v -0.403932 -0.140519 -0.057577
v -0.414858 -0.129593 -0.057577
v -0.403932 -0.129593 -0.057577
v -0.302330 -0.129593 -0.057577
v -0.302318 -0.149030 -0.057577
v -0.340232 -0.188967 -0.057577
v -0.454479 0.089971 -0.057577
v -0.403932 0.140517 -0.057577
v -0.403932 0.089971 -0.057577
v -0.514326 -0.030106 -0.057577
v -0.403932 -0.019812 -0.057577
v -0.302339 -0.075588 -0.057577
v -0.302339 0.089971 -0.057577
v -0.302339 0.075584 -0.057577
v -0.340231 0.188967 -0.057577
vt 3.710461 4.678484
vt 3.716856 4.700323
vt 3.700614 4.733558
vt 3.700614 4.678484
vt 2.604891 4.771902
vt 2.550241 4.700323
vt 2.556635 4.678484
vt 2.604891 4.678484
vt 2.604891 4.628747
vt 3.457120 4.678484
vt 3.457120 4.783654
vt 3.335373 4.783654
vt 3.335373 4.678484
vt 2.726638 4.506932
vt 2.758454 4.491971
vt 2.800229 4.557455
vt 2.726638 4.557455
vt 2.676184 4.557455
vt 2.800229 4.799513
vt 2.800229 4.864624
vt 2.758455 4.908679
vt 2.726638 4.893715
vt 2.726638 4.799513
vt 2.848385 4.616993
vt 2.970132 4.616993
vt 2.970132 4.678484
vt 2.848385 4.678484
vt 2.726638 4.678484
vt 2.800229 4.616993
vt 2.632503 4.799513
vt 2.970132 4.783654
vt 2.848385 4.783654
vt 2.800229 4.783654
vt 3.213626 4.678484
vt 3.213626 4.783654
vt 3.091879 4.783654
vt 3.091879 4.678484
vt 3.091879 4.616993
vt 3.213626 4.616993
vt 3.335373 4.616993
vt 3.457120 4.616993
vt 3.578867 4.545410
vt 3.590912 4.557455
vt 3.578867 4.557455
vt 3.466865 4.557455
vt 3.466865 4.536026
vt 3.508641 4.491971
vt 3.634592 4.799513
vt 3.578867 4.855238
vt 3.578867 4.799513
vt 3.700614 4.667093
vt 3.578867 4.678484
vt 3.466865 4.616993
vt 3.466865 4.799513
vt 3.466865 4.783654
vt 3.508640 4.908679
vt 3.710461 4.678484
vt 3.700614 4.678484
vt 3.700614 4.733558
vt 3.716856 4.700323
vt 2.604891 4.771902
vt 2.604891 4.678484
vt 2.556635 4.678484
vt 2.550241 4.700323
vt 2.604891 4.628747
vt 3.457120 4.678484
vt 3.335373 4.678484
vt 3.335373 4.783654
vt 3.457120 4.783654
vt 2.726638 4.506932
vt 2.726638 4.557455
vt 2.800229 4.557455
vt 2.758454 4.491971
vt 2.676184 4.557455
vt 2.800229 4.799513
vt 2.726638 4.799513
vt 2.726638 4.893715
vt 2.758455 4.908679
vt 2.800229 4.864624
vt 2.848385 4.616993
vt 2.848385 4.678484
vt 2.970132 4.678484
vt 2.970132 4.616993
vt 2.726638 4.678484
vt 2.800229 4.616993
vt 2.632503 4.799513
vt 2.848385 4.783654
vt 2.970132 4.783654
vt 2.800229 4.783654
vt 3.213626 4.678484
vt 3.091879 4.678484
vt 3.091879 4.783654
vt 3.213626 4.783654
vt 3.091879 4.616993
vt 3.213626 4.616993
vt 3.335373 4.616993
vt 3.457120 4.616993
vt 3.578867 4.545410
vt 3.578867 4.557455
vt 3.590912 4.557455
vt 3.466865 4.557455
vt 3.508641 4.491971
vt 3.466865 4.536026
vt 3.634592 4.799513
vt 3.578867 4.799513
vt 3.578867 4.855238
vt 3.578867 4.678484
vt 3.700614 4.667093
vt 3.466865 4.616993
vt 3.466865 4.783654
vt 3.466865 4.799513
vt 3.508640 4.908679
vt 3.710461 4.678484
vt 3.716856 4.700323
vt 3.700614 4.733558
vt 2.604891 4.771902
vt 2.550241 4.700323
vt 2.556635 4.678484
vt 2.604891 4.628747
vt 3.457120 4.783654
vt 3.335373 4.783654
vt 2.726638 4.506932
vt 2.758454 4.491971
vt 2.800229 4.557455
vt 2.676184 4.557455
vt 2.800229 4.799513
vt 2.800229 4.864624
vt 2.758455 4.908679
vt 2.726638 4.893715
vt 2.848385 4.616993
vt 2.970132 4.616993
vt 2.800229 4.616993
vt 2.632503 4.799513
vt 2.970132 4.783654
vt 2.848385 4.783654
vt 2.800229 4.783654
vt 3.213626 4.783654
vt 3.091879 4.783654
vt 3.091879 4.616993
vt 3.213626 4.616993
vt 3.335373 4.616993
vt 3.457120 4.616993
vt 3.578867 4.545410
vt 3.590912 4.557455
vt 3.466865 4.557455
vt 3.466865 4.536026
vt 3.508641 4.491971
vt 3.634592 4.799513
vt 3.578867 4.855238
vt 3.700614 4.667093
vt 3.466865 4.616993
vt 3.466865 4.799513
vt 3.466865 4.783654
vt 3.508640 4.908679
vn 0.000000 0.000000 -1.000000
vn 0.000000 -0.000000 -1.000000
vn 0.000000 -0.000000 -1.000000
vn 0.000000 -0.000000 -1.000000
vn -0.000000 -0.000000 -1.000000
vn 0.000000 -0.000000 -1.000000
vn -0.000000 -0.000000 -1.000000
vn -0.000000 0.000000 -1.000000
vn -0.000000 0.000000 -1.000000
vn -0.000000 -0.000000 -1.000000
vn 0.000000 -0.000000 -1.000000
vn 0.000000 -0.000000 -1.000000
vn 0.000000 -0.000000 -1.000000
vn -0.000000 0.000000 -1.000000
vn -0.000000 0.000000 -1.000000
vn 0.000000 0.000000 -1.000000
vn 0.000000 0.000000 -1.000000
vn -0.000000 0.000000 -1.000000
vn 0.000000 -0.000000 -1.000000
vn 0.000000 -0.000000 -1.000000
vn -0.000000 -0.000000 -1.000000
vn 0.000000 -0.000000 -1.000000
vn 0.000000 -0.000000 -1.000000
vn 0.000000 0.000000 -1.000000
vn 0.000000 0.000000 -1.000000
vn 0.000000 0.000000 -1.000000
vn 0.000000 0.000000 -1.000000
vn 0.000000 -0.000000 -1.000000
vn 0.000000 0.000000 -1.000000
vn -0.000000 -0.000000 -1.000000
vn 0.000000 -0.000000 -1.000000
vn 0.000000 -0.000000 -1.000000
vn 0.000000 -0.000000 -1.000000
vn 0.000000 0.000000 -1.000000
vn 0.000000 -0.000000 -1.000000
vn 0.000000 0.000000 -1.000000
vn 0.000000 -0.000000 -1.000000
vn 0.000000 0.000000 -1.000000
vn 0.000000 0.000000 -1.000000
vn 0.000000 0.000000 -1.000000
vn -0.000000 0.000000 -1.000000
vn -0.000000 0.000000 -1.000000
vn -0.000000 -0.000000 -1.000000
vn -0.000000 0.000000 -1.000000
vn -0.000000 0.000000 -1.000000
vn -0.000000 0.000000 -1.000000
vn -0.000000 0.000000 -1.000000
vn 0.000000 -0.000000 -1.000000
vn 0.000000 -0.000000 -1.000000
vn -0.000000 -0.000000 -1.000000
vn -0.000000 -0.000000 -1.000000
vn -0.000000 -0.000000 -1.000000
vn -0.000000 0.000000 -1.000000
vn -0.000000 0.000000 -1.000000
vn 0.000000 0.000000 -1.000000
vn 0.000000 0.000000 -1.000000
vn 0.000000 0.000000 1.000000
vn 0.000000 0.000000 1.000000
vn 0.000000 0.000000 1.000000
vn 0.000000 0.000000 1.000000
vn 0.000000 0.000000 1.000000
vn 0.000000 0.000000 1.000000
vn 0.000000 0.000000 1.000000
vn 0.000000 0.000000 1.000000
vn 0.000000 0.000000 1.000000
vn 0.000000 0.000000 1.000000
vn 0.000000 0.000000 1.000000
vn 0.000000 0.000000 1.000000
vn 0.000000 0.000000 1.000000
vn 0.000000 0.000000 1.000000
vn 0.000000 0.000000 1.000000
vn 0.000000 0.000000 1.000000
vn 0.000000 0.000000 1.000000
vn 0.000000 0.000000 1.000000
vn 0.000000 0.000000 1.000000
vn 0.000000 0.000000 1.000000
vn 0.000000 0.000000 1.000000
vn 0.000000 0.000000 1.000000
vn 0.000000 0.000000 1.000000
vn 0.000000 0.000000 1.000000
vn 0.000000 0.000000 1.000000
vn 0.000000 0.000000 1.000000
vn 0.000000 0.000000 1.000000
vn 0.000000 0.000000 1.000000
vn 0.000000 0.000000 1.000000
vn 0.000000 0.000000 1.000000
vn 0.000000 0.000000 1.000000
vn 0.000000 0.000000 1.000000
vn 0.000000 0.000000 1.000000
vn 0.000000 0.000000 1.000000
vn 0.000000 0.000000 1.000000
vn 0.000000 0.000000 1.000000
vn 0.000000 0.000000 1.000000
vn 0.000000 0.000000 1.000000
vn 0.000000 0.000000 1.000000
vn 0.000000 0.000000 1.000000
vn 0.000000 0.000000 1.000000
vn 0.000000 0.000000 1.000000
vn 0.000000 0.000000 1.000000
vn 0.000000 0.000000 1.000000
vn 0.000000 0.000000 1.000000
vn 0.000000 0.000000 1.000000
vn 0.000000 0.000000 1.000000
vn 0.000000 0.000000 1.000000
vn 0.000000 0.000000 1.000000
vn 0.000000 0.000000 1.000000
vn 0.000000 0.000000 1.000000
vn 0.000000 0.000000 1.000000
vn 0.000000 0.000000 1.000000
vn 0.000000 0.000000 1.000000
vn 0.000000 0.000000 1.000000
vn 0.000000 0.000000 1.000000
vn -0.897731 -0.440545 0.000000
vn -0.959672 -0.281123 0.000000
vn -0.897749 -0.440508 0.000000
vn -0.959720 -0.280959 0.000000
vn -0.897755 0.440495 0.000000
vn -0.769726 0.638374 0.000000
vn -0.897755 0.440495 0.000000
vn -0.769726 0.638374 0.000000
vn 0.769733 0.638366 0.000000
vn 0.794820 0.606846 0.000000
vn 0.769731 0.638368 0.000000
vn 0.794827 0.606836 0.000000
vn 0.959720 -0.280959 0.000000
vn 0.794813 -0.606855 0.000000
vn 0.959696 -0.281041 0.000000
vn 0.794799 -0.606872 0.000000
vn 0.711448 -0.702739 0.000000
vn 0.711448 -0.702739 0.000000
vn 0.000000 1.000000 0.000000
vn 0.000000 1.000000 0.000000
vn 0.000000 1.000000 0.000000
vn 0.000000 1.000000 0.000000
vn 0.622604 -0.782537 0.000000
vn 0.423289 -0.905995 0.000000
vn 0.622597 -0.782543 0.000000
vn 0.423275 -0.906001 0.000000
vn -0.842925 -0.538031 0.000000
vn -0.842914 -0.538049 0.000000
vn -0.842905 -0.538063 0.000000
vn -0.842893 -0.538081 0.000000
vn 0.707580 -0.706634 0.000000
vn 0.707581 -0.706632 0.000000
vn -1.000000 -0.000281 0.000000
vn -1.000000 -0.000361 0.000000
vn -1.000000 -0.000291 0.000000
vn -1.000000 -0.000386 0.000000
vn -0.725232 0.688504 0.000000
vn -0.725238 0.688499 0.000000
vn -0.725246 0.688490 0.000000
vn -0.725251 0.688485 0.000000
vn 0.423377 0.905954 0.000000
vn 0.654862 0.755749 0.000000
vn 0.423377 0.905954 0.000000
vn 0.654865 0.755746 0.000000
vn 0.000000 -1.000000 0.000000
vn 0.000000 -1.000000 0.000000
vn 0.000000 -1.000000 0.000000
vn 0.000000 -1.000000 0.000000
vn 0.000000 -1.000000 0.000000
vn 0.000000 -1.000000 0.000000
vn -1.000000 0.000192 0.000000
vn -1.000000 0.000181 0.000000
vn -1.000000 0.000164 0.000000
vn -1.000000 0.000153 0.000000
vn 0.707574 0.706639 0.000000
vn 0.707572 0.706641 0.000000
vn 0.000000 1.000000 0.000000
vn 0.000000 1.000000 0.000000
vn 0.000000 1.000000 0.000000
vn 0.000000 1.000000 0.000000
vn 0.000000 1.000000 0.000000
vn 0.000000 1.000000 0.000000
vn -1.000000 0.000000 0.000000
vn -1.000000 0.000049 0.000000
vn 0.000000 1.000000 0.000000
vn 0.000000 1.000000 0.000000
vn 0.000000 1.000000 0.000000
vn 0.000000 1.000000 0.000000
vn 0.000000 -1.000000 0.000000
vn 0.000000 -1.000000 0.000000
vn 0.000000 -1.000000 0.000000
vn 0.000000 -1.000000 0.000000
vn 0.000000 -1.000000 0.000000
vn 0.000000 -1.000000 0.000000
vn 0.000000 -1.000000 0.000000
vn 0.000000 -1.000000 0.000000
vn -0.622593 -0.782546 0.000000
vn -0.707163 -0.707051 0.000000
vn -0.622605 -0.782537 0.000000
vn -0.707173 -0.707041 0.000000
vn 1.000000 0.000257 0.000000
vn 1.000000 0.000544 0.000000
vn 1.000000 0.000290 0.000000
vn 1.000000 0.000639 0.000000
vn 0.725232 -0.688504 0.000000
vn 0.725232 -0.688504 0.000000
vn 0.725232 -0.688504 0.000000
vn 0.725232 -0.688504 0.000000
vn -0.605369 -0.795945 0.000000
vn -0.605369 -0.795945 0.000000
vn -0.707161 0.707052 0.000000
vn -0.654864 0.755747 0.000000
vn -0.707165 0.707048 0.000000
vn -0.654862 0.755749 0.000000
vn -0.711452 -0.702734 0.000000
vn -0.711448 -0.702739 0.000000
vn 0.000000 -1.000000 0.000000
vn 0.000000 -1.000000 0.000000
vn 1.000000 0.000153 0.000000
vn 1.000000 0.000165 0.000000
vn 0.948438 0.316962 0.000000
vn 1.000000 0.000005 0.000000
vn 0.948435 0.316971 0.000000
vn 1.000000 0.000058 0.000000
vn 0.000000 1.000000 0.000000
vn 0.000000 1.000000 0.000000
vn -0.605380 0.795936 0.000000
vn -0.605368 0.795946 0.000000
vn 0.933927 0.357465 0.000000
vn 0.933925 0.357469 0.000000
s 1
usemtl initialShadingGroup
f 57/1/1 58/2/2 60/4/3
f 60/4/3 58/2/2 59/3/4
f 61/5/5 62/6/6 64/8/7
f 64/8/7 62/6/6 63/7/8
f 63/7/8 65/9/9 64/8/7
f 66/10/10 67/11/11 69/13/12
f 69/13/12 67/11/11 68/12/13
f 70/14/14 71/15/15 73/17/16
f 73/17/16 71/15/15 72/16/17
f 74/18/18 70/14/14 73/17/16
f 75/19/19 76/20/20 79/23/21
f 76/20/20 77/21/22 79/23/21
f 77/21/22 78/22/23 79/23/21
f 80/24/24 81/25/25 83/27/26
f 83/27/26 81/25/25 82/26/27
f 84/28/28 64/8/7 73/17/16
f 64/8/7 65/9/9 73/17/16
f 65/9/9 74/18/18 73/17/16
f 80/24/24 83/27/26 85/29/29
f 83/27/26 84/28/28 85/29/29
f 84/28/28 73/17/16 85/29/29
f 85/29/29 73/17/16 72/16/17
f 78/22/23 86/30/30 79/23/21
f 64/8/7 84/28/28 61/5/5
f 61/5/5 84/28/28 86/30/30
f 86/30/30 84/28/28 79/23/21
f 82/26/27 87/31/31 83/27/26
f 83/27/26 87/31/31 88/32/32
f 88/32/32 89/33/33 83/27/26
f 83/27/26 89/33/33 84/28/28
f 75/19/19 79/23/21 89/33/33
f 89/33/33 79/23/21 84/28/28
f 90/34/34 91/35/35 93/37/36
f 93/37/36 91/35/35 92/36/37
f 94/38/38 95/39/39 93/37/36
f 93/37/36 95/39/39 90/34/34
f 81/25/25 94/38/38 82/26/27
f 82/26/27 94/38/38 93/37/36
f 92/36/37 87/31/31 93/37/36
f 93/37/36 87/31/31 82/26/27
f 96/40/40 97/41/41 69/13/12
f 69/13/12 97/41/41 66/10/10
f 95/39/39 96/40/40 90/34/34
f 90/34/34 96/40/40 69/13/12
f 68/12/13 91/35/35 69/13/12
f 69/13/12 91/35/35 90/34/34
f 98/42/42 99/43/43 100/44/44
f 100/44/44 101/45/45 98/42/42
f 101/45/45 102/46/46 98/42/42
f 102/46/46 103/47/47 98/42/42
f 104/48/48 105/49/49 106/50/50
f 100/44/44 99/43/43 108/52/51
f 60/4/3 108/52/51 107/51/52
f 99/43/43 107/51/52 108/52/51
f 97/41/41 109/53/53 66/10/10
f 66/10/10 109/53/53 108/52/51
f 108/52/51 109/53/53 100/44/44
f 109/53/53 101/45/45 100/44/44
f 60/4/3 59/3/4 108/52/51
f 59/3/4 104/48/48 108/52/51
f 104/48/48 106/50/50 108/52/51
f 106/50/50 110/54/54 108/52/51
f 110/54/54 111/55/55 108/52/51
f 67/11/11 66/10/10 111/55/55
f 111/55/55 66/10/10 108/52/51
f 112/56/56 110/54/54 105/49/49
f 105/49/49 110/54/54 106/50/50
f 107/51/52 57/1/1 60/4/3
s 10
f 56/57/57 50/58/58 4/60/59
f 4/60/59 50/58/58 49/59/60
f 13/61/61 16/62/62 9/64/63
f 9/64/63 16/62/62 15/63/64
f 15/63/64 16/62/62 14/65/65
f 40/66/66 42/67/67 18/69/68
f 18/69/68 42/67/67 43/68/69
f 21/70/70 22/71/71 12/73/72
f 12/73/72 22/71/71 20/72/73
f 19/74/74 22/71/71 21/70/70
f 32/75/75 31/76/76 10/79/77
f 10/79/77 31/76/76 11/78/78
f 31/76/76 29/77/79 11/78/78
f 27/80/80 28/81/81 23/83/82
f 23/83/82 28/81/81 25/82/83
f 26/84/84 22/71/71 16/62/62
f 22/71/71 19/74/74 16/62/62
f 19/74/74 14/65/65 16/62/62
f 20/72/73 22/71/71 1/85/85
f 22/71/71 26/84/84 1/85/85
f 26/84/84 28/81/81 1/85/85
f 1/85/85 28/81/81 27/80/80
f 29/77/79 31/76/76 30/86/86
f 31/76/76 26/84/84 30/86/86
f 30/86/86 26/84/84 13/61/61
f 26/84/84 16/62/62 13/61/61
f 25/82/83 28/81/81 24/88/87
f 24/88/87 28/81/81 33/87/88
f 33/87/88 28/81/81 8/89/89
f 28/81/81 26/84/84 8/89/89
f 31/76/76 32/75/75 26/84/84
f 26/84/84 32/75/75 8/89/89
f 36/90/90 38/91/91 35/93/92
f 35/93/92 38/91/91 39/92/93
f 37/94/94 38/91/91 34/95/95
f 34/95/95 38/91/91 36/90/90
f 23/83/82 25/82/83 37/94/94
f 37/94/94 25/82/83 38/91/91
f 39/92/93 38/91/91 24/88/87
f 24/88/87 38/91/91 25/82/83
f 41/96/96 42/67/67 17/97/97
f 17/97/97 42/67/67 40/66/66
f 34/95/95 36/90/90 41/96/96
f 41/96/96 36/90/90 42/67/67
f 43/68/69 42/67/67 35/93/92
f 35/93/92 42/67/67 36/90/90
f 46/98/98 47/99/99 45/100/100
f 47/99/99 46/98/98 44/101/101
f 44/101/101 46/98/98 5/103/102
f 46/98/98 6/102/103 5/103/102
f 52/104/104 54/105/105 55/106/106
f 47/99/99 51/107/107 45/100/100
f 50/58/58 48/108/108 51/107/107
f 51/107/107 48/108/108 45/100/100
f 17/97/97 40/66/66 2/109/109
f 40/66/66 51/107/107 2/109/109
f 51/107/107 47/99/99 2/109/109
f 47/99/99 44/101/101 2/109/109
f 50/58/58 51/107/107 49/59/60
f 49/59/60 51/107/107 52/104/104
f 51/107/107 54/105/105 52/104/104
f 54/105/105 51/107/107 53/111/110
f 53/111/110 51/107/107 3/110/111
f 40/66/66 18/69/68 51/107/107
f 51/107/107 18/69/68 3/110/111
f 54/105/105 53/111/110 55/106/106
f 55/106/106 53/111/110 7/112/112
f 48/108/108 50/58/58 56/57/57
s 22
f 56/113/113 4/114/114 57/1/115
f 57/1/115 4/114/114 58/2/116
s 23
f 4/114/117 49/115/118 58/2/119
f 58/2/119 49/115/118 59/3/120
s 24
f 13/116/121 9/117/122 61/5/123
f 61/5/123 9/117/122 62/6/124
s 25
f 9/117/125 15/118/126 62/6/127
f 62/6/127 15/118/126 63/7/128
f 15/118/126 14/119/129 63/7/128
f 63/7/128 14/119/129 65/9/130
s 26
f 18/120/131 43/121/132 67/11/133
f 67/11/133 43/121/132 68/12/134
s 25
f 21/122/135 12/123/136 70/14/137
f 70/14/137 12/123/136 71/15/138
s 28
f 12/123/139 20/124/140 71/15/141
f 71/15/141 20/124/140 72/16/142
s 25
f 19/125/143 21/122/135 74/18/144
f 74/18/144 21/122/135 70/14/137
s 29
f 32/126/145 10/127/146 75/19/147
f 75/19/147 10/127/146 76/20/148
s 30
f 10/127/149 11/128/150 76/20/151
f 76/20/151 11/128/150 77/21/152
s 24
f 11/128/153 29/129/154 77/21/155
f 77/21/155 29/129/154 78/22/156
s 32
f 27/130/157 23/131/158 80/24/159
f 80/24/159 23/131/158 81/25/160
s 25
f 14/119/129 19/125/143 65/9/130
f 65/9/130 19/125/143 74/18/144
s 32
f 1/132/161 27/130/157 85/29/162
f 85/29/162 27/130/157 80/24/159
s 33
f 20/124/163 1/132/164 72/16/165
f 72/16/165 1/132/164 85/29/166
s 24
f 29/129/154 30/133/167 78/22/156
f 78/22/156 30/133/167 86/30/168
f 30/133/167 13/116/121 86/30/168
f 86/30/168 13/116/121 61/5/123
s 26
f 24/134/169 33/135/170 87/31/171
f 87/31/171 33/135/170 88/32/172
f 33/135/170 8/136/173 88/32/172
f 88/32/172 8/136/173 89/33/174
s 29
f 8/136/175 32/126/145 89/33/176
f 89/33/176 32/126/145 75/19/147
s 26
f 35/137/177 39/138/178 91/35/179
f 91/35/179 39/138/178 92/36/180
s 32
f 37/139/181 34/140/182 94/38/183
f 94/38/183 34/140/182 95/39/184
f 23/131/158 37/139/181 81/25/160
f 81/25/160 37/139/181 94/38/183
s 26
f 39/138/178 24/134/169 92/36/180
f 92/36/180 24/134/169 87/31/171
s 32
f 41/141/185 17/142/186 96/40/187
f 96/40/187 17/142/186 97/41/188
f 34/140/182 41/141/185 95/39/184
f 95/39/184 41/141/185 96/40/187
s 26
f 43/121/132 35/137/177 68/12/134
f 68/12/134 35/137/177 91/35/179
s 22
f 46/143/189 45/144/190 98/42/191
f 98/42/191 45/144/190 99/43/192
s 39
f 44/145/193 5/146/194 101/45/195
f 101/45/195 5/146/194 102/46/196
s 40
f 5/146/197 6/147/198 102/46/199
f 102/46/199 6/147/198 103/47/200
s 22
f 6/147/201 46/143/189 103/47/202
f 103/47/202 46/143/189 98/42/191
s 23
f 52/148/203 55/149/204 104/48/205
f 104/48/205 55/149/204 105/49/206
s 22
f 45/144/190 48/150/207 99/43/192
f 99/43/192 48/150/207 107/51/208
s 32
f 17/142/186 2/151/209 97/41/188
f 97/41/188 2/151/209 109/53/210
s 39
f 2/151/211 44/145/193 109/53/212
f 109/53/212 44/145/193 101/45/195
s 23
f 49/115/118 52/148/203 59/3/120
f 59/3/120 52/148/203 104/48/205
s 42
f 53/152/213 3/153/214 110/54/215
f 110/54/215 3/153/214 111/55/216
s 26
f 3/153/217 18/120/131 111/55/218
f 111/55/218 18/120/131 67/11/133
s 23
f 55/149/204 7/154/219 105/49/206
f 105/49/206 7/154/219 112/56/220
s 42
f 7/154/221 53/152/213 112/56/222
f 112/56/222 53/152/213 110/54/215
s 22
f 48/150/207 56/113/113 107/51/208
f 107/51/208 56/113/113 57/1/115
