# This file uses centimeters as units for non-parametric coordinates.

mtllib d12_high.mtl
v 3.123144 -1.111714 0.131417
v 3.100694 -1.243132 0.095093
v 3.041923 -1.324353 -0.000001
v 3.100694 -1.243132 -0.095096
v 3.123144 -1.111714 -0.131419
v 3.159467 -1.089265 -0.000001
v 1.930209 -2.011430 -1.798793
v 1.857563 -2.011430 -1.916336
v 1.798791 -1.930209 -2.011431
v 1.916335 -1.857563 -2.011431
v 2.011430 -1.798791 -1.930209
v 2.011430 -1.916335 -1.857564
v 1.111714 -0.131418 -3.123144
v 1.089265 0.000000 -3.159467
v 1.111714 0.131418 -3.123144
v 1.243132 0.095095 -3.100695
v 1.324353 0.000000 -3.041924
v 1.243132 -0.095095 -3.100695
v 1.798791 1.930209 -2.011431
v 1.857563 2.011430 -1.916336
v 1.930209 2.011430 -1.798793
v 2.011430 1.916335 -1.857564
v 2.011430 1.798791 -1.930209
v 1.916335 1.857563 -2.011431
v 3.041923 1.324353 -0.000001
v 3.100694 1.243132 0.095093
v 3.123144 1.111714 0.131417
v 3.159467 1.089265 -0.000001
v 3.123144 1.111714 -0.131419
v 3.100694 1.243132 -0.095096
v 1.111714 0.131418 3.123143
v 1.089265 0.000000 3.159467
v 1.111714 -0.131418 3.123143
v 1.243132 -0.095095 3.100694
v 1.324353 -0.000000 3.041923
v 1.243132 0.095095 3.100694
v 1.930209 2.011430 1.798790
v 1.857563 2.011430 1.916335
v 1.798791 1.930209 2.011429
v 1.916335 1.857563 2.011429
v 2.011430 1.798791 1.930208
v 2.011430 1.916335 1.857563
v 1.798791 -1.930209 2.011429
v 1.857563 -2.011430 1.916335
v 1.930209 -2.011430 1.798790
v 2.011430 -1.916335 1.857563
v 2.011430 -1.798791 1.930208
v 1.916335 -1.857563 2.011429
v -0.000000 -3.041923 1.324352
v -0.095095 -3.100694 1.243132
v -0.131418 -3.123144 1.111714
v 0.000000 -3.159467 1.089265
v 0.131418 -3.123144 1.111714
v 0.095095 -3.100694 1.243132
v -0.131418 -3.123144 -1.111714
v -0.095095 -3.100694 -1.243132
v -0.000000 -3.041923 -1.324352
v 0.095095 -3.100694 -1.243132
v 0.131418 -3.123144 -1.111714
v 0.000000 -3.159467 -1.089265
v -1.111714 0.131418 3.123143
v -1.243132 0.095095 3.100694
v -1.324353 -0.000000 3.041923
v -1.243132 -0.095095 3.100694
v -1.111714 -0.131418 3.123143
v -1.089265 0.000000 3.159467
v -2.011430 -1.798791 1.930208
v -2.011430 -1.916335 1.857563
v -1.930209 -2.011430 1.798790
v -1.857563 -2.011430 1.916335
v -1.798791 -1.930209 2.011429
v -1.916335 -1.857563 2.011429
v -3.123144 -1.111714 0.131417
v -3.159467 -1.089265 -0.000001
v -3.123144 -1.111714 -0.131419
v -3.100694 -1.243132 -0.095096
v -3.041923 -1.324353 -0.000001
v -3.100694 -1.243132 0.095093
v -2.011430 -1.798791 -1.930209
v -1.916335 -1.857563 -2.011431
v -1.798791 -1.930209 -2.011431
v -1.857563 -2.011430 -1.916336
v -1.930209 -2.011430 -1.798793
v -2.011430 -1.916335 -1.857564
v -1.324353 0.000000 -3.041924
v -1.243132 0.095095 -3.100695
v -1.111714 0.131418 -3.123144
v -1.089265 0.000000 -3.159467
v -1.111714 -0.131418 -3.123144
v -1.243132 -0.095095 -3.100695
v -2.011430 1.798791 -1.930209
v -2.011430 1.916335 -1.857564
v -1.930209 2.011430 -1.798793
v -1.857563 2.011430 -1.916336
v -1.798791 1.930209 -2.011431
v -1.916335 1.857563 -2.011431
v -0.131418 3.123144 -1.111714
v 0.000000 3.159467 -1.089265
v 0.131418 3.123144 -1.111714
v 0.095095 3.100694 -1.243132
v 0.000000 3.041923 -1.324352
v -0.095095 3.100694 -1.243132
v -0.131418 3.123144 1.111714
v -0.095095 3.100694 1.243132
v 0.000000 3.041923 1.324352
v 0.095095 3.100694 1.243132
v 0.131418 3.123144 1.111714
v 0.000000 3.159467 1.089265
v -1.930209 2.011430 1.798790
v -2.011430 1.916335 1.857563
v -2.011430 1.798791 1.930208
v -1.916335 1.857563 2.011429
v -1.798791 1.930209 2.011429
v -1.857563 2.011430 1.916335
v -3.041923 1.324353 -0.000001
v -3.100694 1.243132 -0.095096
v -3.123144 1.111714 -0.131419
v -3.159467 1.089265 -0.000001
v -3.123144 1.111714 0.131417
v -3.100694 1.243132 0.095093
v 3.137808 -1.198536 -0.000001
v 1.939272 -1.939272 -1.939272
v 1.198536 0.000000 -3.137809
v 1.939272 1.939272 -1.939272
v 3.137808 1.198536 -0.000001
v 1.198536 0.000000 3.137808
v 1.939272 1.939272 1.939271
v 1.939272 -1.939272 1.939271
v 0.000000 -3.137808 1.198535
v 0.000000 -3.137808 -1.198535
v -1.198536 0.000000 3.137808
v -1.939272 -1.939272 1.939271
v -3.137808 -1.198536 -0.000001
v -1.939272 -1.939272 -1.939272
v -1.198536 0.000000 -3.137809
v -1.939272 1.939272 -1.939272
v 0.000000 3.137808 -1.198535
v 0.000000 3.137808 1.198535
v -1.939272 1.939272 1.939271
v -3.137808 1.198536 -0.000001
vt 0.203388 0.551801
vt 0.204474 0.558757
vt 0.203342 0.565681
vt 0.193615 0.562401
vt 0.196457 0.564493
vt 0.190372 0.556134
vt 0.196522 0.552904
vt 0.168245 0.674453
vt 0.895211 0.750000
vt 0.164955 0.680435
vt 0.896024 0.743210
vt 0.094509 0.628582
vt 0.902650 0.744524
vt 0.099108 0.623564
vt 0.162114 0.671575
vt 0.103704 0.628582
vt 0.930861 0.634561
vt 0.956462 0.559017
vt 0.934151 0.628582
vt 0.957269 0.552220
vt 0.001756 0.553541
vt 0.963901 0.553541
vt 0.007879 0.556423
vt 0.936993 0.637442
vt 0.004598 0.562401
vt 0.992121 0.443577
vt 0.063007 0.362558
vt 0.995403 0.437599
vt 0.069139 0.365439
vt 0.043538 0.440983
vt 0.065849 0.371418
vt 0.042731 0.447780
vt 0.998244 0.446459
vt 0.036099 0.446459
vt 0.160641 0.432537
vt 0.165574 0.437464
vt 0.168731 0.443739
vt 0.162536 0.446936
vt 0.155687 0.447985
vt 0.155760 0.437599
vt 0.154675 0.440983
vt 0.358287 0.432538
vt 0.364253 0.440983
vt 0.363168 0.437599
vt 0.363245 0.447997
vt 0.356394 0.446944
vt 0.350198 0.443745
vt 0.353354 0.437468
vt 0.251448 0.365697
vt 0.261220 0.362558
vt 0.257708 0.362558
vt 0.267480 0.365697
vt 0.264379 0.371973
vt 0.259464 0.376954
vt 0.254549 0.371973
vt 0.328556 0.556134
vt 0.322471 0.564493
vt 0.325312 0.562401
vt 0.315585 0.565681
vt 0.314454 0.558758
vt 0.315540 0.551801
vt 0.322406 0.552904
vt 0.419817 0.623555
vt 0.578423 0.744524
vt 0.424419 0.628582
vt 0.585048 0.743210
vt 0.353973 0.680435
vt 0.585862 0.750000
vt 0.350683 0.674453
vt 0.415224 0.628582
vt 0.356814 0.671575
vt 0.697807 0.743201
vt 0.776635 0.744524
vt 0.704437 0.744524
vt 0.783265 0.743201
vt 0.254866 0.746616
vt 0.784074 0.750000
vt 0.259464 0.741607
vt 0.696998 0.750000
vt 0.264061 0.746616
vt 0.449788 0.365439
vt 0.485670 0.437599
vt 0.455920 0.362558
vt 0.489024 0.443815
vt 0.482991 0.446988
vt 0.476270 0.448018
vt 0.453079 0.371418
vt 0.475390 0.440983
vt 0.523730 0.551982
vt 0.546921 0.628582
vt 0.524610 0.559017
vt 0.550212 0.634561
vt 0.514330 0.562401
vt 0.544080 0.637442
vt 0.510976 0.556185
vt 0.517009 0.553012
vt 0.636755 0.552003
vt 0.643606 0.553056
vt 0.649802 0.556255
vt 0.646645 0.562532
vt 0.641713 0.567462
vt 0.635747 0.559017
vt 0.636832 0.562401
vt 0.740536 0.623046
vt 0.745451 0.628027
vt 0.748553 0.634303
vt 0.738780 0.637442
vt 0.742292 0.637442
vt 0.732520 0.634303
vt 0.735621 0.628027
vt 0.831269 0.556261
vt 0.837464 0.553064
vt 0.844313 0.552015
vt 0.844240 0.562401
vt 0.845325 0.559017
vt 0.839359 0.567463
vt 0.834426 0.562536
vt 0.796612 0.448200
vt 0.795526 0.441243
vt 0.796658 0.434319
vt 0.806385 0.437599
vt 0.803543 0.435507
vt 0.809629 0.443866
vt 0.803478 0.447097
vt 0.831755 0.325547
vt 0.104789 0.250000
vt 0.835045 0.319565
vt 0.103976 0.256790
vt 0.905491 0.371418
vt 0.097350 0.255476
vt 0.900892 0.376437
vt 0.837886 0.328425
vt 0.896296 0.371418
vt 0.740536 0.258393
vt 0.303002 0.250000
vt 0.735939 0.253384
vt 0.302193 0.256798
vt 0.223365 0.255476
vt 0.295563 0.255476
vt 0.216735 0.256799
vt 0.745134 0.253384
vt 0.215926 0.250000
vt 0.649317 0.325547
vt 0.584776 0.371418
vt 0.643186 0.328425
vt 0.580183 0.376445
vt 0.421577 0.255476
vt 0.575581 0.371418
vt 0.414952 0.256790
vt 0.646027 0.319565
vt 0.414138 0.250000
vt 0.684415 0.434319
vt 0.685547 0.441242
vt 0.684460 0.448199
vt 0.677594 0.447096
vt 0.671444 0.443866
vt 0.677529 0.435507
vt 0.674688 0.437599
vt 0.198213 0.559017
vt 0.900894 0.750000
vt 0.099106 0.631966
vt 0.160357 0.677051
vt 0.962145 0.559017
vt 0.000000 0.559017
vt 0.938749 0.631966
vt 0.061251 0.368034
vt 0.037855 0.440983
vt 1.000000 0.440983
vt 0.160357 0.440983
vt 0.358570 0.440983
vt 0.259464 0.368034
vt 0.320715 0.559017
vt 0.580179 0.750000
vt 0.358570 0.677051
vt 0.419821 0.631966
vt 0.778391 0.750000
vt 0.259464 0.750000
vt 0.702681 0.750000
vt 0.481072 0.440983
vt 0.457677 0.368034
vt 0.542323 0.631966
vt 0.518928 0.559017
vt 0.641430 0.559017
vt 0.740536 0.631966
vt 0.839643 0.559017
vt 0.801787 0.440983
vt 0.099106 0.250000
vt 0.900894 0.368034
vt 0.839643 0.322949
vt 0.297319 0.250000
vt 0.221609 0.250000
vt 0.740536 0.250000
vt 0.580179 0.368034
vt 0.419821 0.250000
vt 0.641430 0.322949
vt 0.679285 0.440983
vn 0.528806 -0.848668 0.011257
vn 0.517549 -0.855625 0.006957
vn 0.535763 -0.844369 0.000000
vn 0.517549 -0.855625 -0.006957
vn 0.528806 -0.848668 -0.011257
vn 0.848668 -0.011257 -0.528806
vn 0.844369 0.000000 -0.535763
vn 0.855625 -0.006957 -0.517549
vn 0.848668 0.011257 -0.528806
vn 0.855625 0.006957 -0.517549
vn 0.855626 0.006957 0.517549
vn 0.848668 0.011257 0.528806
vn 0.855626 -0.006957 0.517549
vn 0.844369 0.000000 0.535763
vn 0.848668 -0.011257 0.528806
vn -0.000000 -0.535763 -0.844369
vn -0.011257 -0.528806 -0.848668
vn 0.011257 -0.528806 -0.848668
vn -0.006957 -0.517549 -0.855625
vn 0.006957 -0.517549 -0.855625
vn -0.006957 0.517549 -0.855625
vn -0.011257 0.528806 -0.848668
vn 0.006957 0.517549 -0.855625
vn -0.000000 0.535763 -0.844369
vn 0.011257 0.528806 -0.848668
vn 0.517549 0.855625 -0.006957
vn 0.517549 0.855625 0.006957
vn 0.528806 0.848668 -0.011257
vn 0.528806 0.848668 0.011257
vn 0.535763 0.844369 0.000000
vn -0.006957 -0.517549 0.855625
vn -0.011257 -0.528806 0.848668
vn 0.006957 -0.517549 0.855625
vn -0.000000 -0.535763 0.844369
vn 0.011257 -0.528806 0.848668
vn 0.011257 0.528806 0.848668
vn 0.000000 0.535763 0.844369
vn 0.006957 0.517549 0.855625
vn -0.011257 0.528806 0.848668
vn -0.006957 0.517549 0.855625
vn -0.528806 -0.848668 0.011257
vn -0.535763 -0.844369 0.000000
vn -0.517549 -0.855626 0.006957
vn -0.528806 -0.848668 -0.011257
vn -0.517549 -0.855626 -0.006957
vn -0.848668 0.011257 0.528806
vn -0.855626 0.006957 0.517549
vn -0.844369 -0.000000 0.535763
vn -0.855626 -0.006957 0.517549
vn -0.848668 -0.011257 0.528806
vn -0.855625 0.006957 -0.517549
vn -0.848668 0.011257 -0.528806
vn -0.855625 -0.006957 -0.517549
vn -0.844369 0.000000 -0.535763
vn -0.848668 -0.011257 -0.528806
vn -0.535763 0.844369 0.000000
vn -0.528806 0.848668 0.011257
vn -0.528806 0.848668 -0.011257
vn -0.517549 0.855625 0.006957
vn -0.517549 0.855625 -0.006957
vn 0.813117 -0.497432 0.302328
vn 0.804862 -0.502533 0.315684
vn 0.813117 -0.497432 -0.302329
vn 0.804862 -0.502534 -0.315684
vn 0.999966 -0.008254 -0.000000
vn 0.999966 0.008254 0.000000
vn 0.315684 -0.804862 -0.502535
vn 0.302328 -0.813116 -0.497433
vn 0.502535 -0.315683 -0.804862
vn 0.497434 -0.302327 -0.813116
vn 0.008254 0.000000 -0.999966
vn -0.008254 0.000000 -0.999966
vn 0.497434 0.302327 -0.813116
vn 0.502535 0.315683 -0.804862
vn 0.315684 0.804862 -0.502535
vn 0.302328 0.813117 -0.497433
vn 0.804862 0.502534 -0.315684
vn 0.813117 0.497432 -0.302329
vn 0.813117 0.497432 0.302328
vn 0.804862 0.502534 0.315684
vn 0.008254 0.000000 0.999966
vn -0.008254 -0.000000 0.999966
vn 0.497431 -0.302329 0.813117
vn 0.502533 -0.315685 0.804863
vn 0.497431 0.302329 0.813117
vn 0.502533 0.315685 0.804863
vn 0.315684 0.804862 0.502535
vn 0.302328 0.813116 0.497433
vn 0.315684 -0.804862 0.502535
vn 0.302328 -0.813116 0.497433
vn -0.302328 -0.813116 0.497433
vn -0.315684 -0.804862 0.502535
vn 0.000000 -0.999966 0.008254
vn 0.000000 -0.999966 -0.008254
vn -0.302328 -0.813117 -0.497433
vn -0.315684 -0.804862 -0.502534
vn -0.497431 0.302329 0.813117
vn -0.502533 0.315685 0.804863
vn -0.497431 -0.302329 0.813117
vn -0.502533 -0.315685 0.804863
vn -0.804862 -0.502534 0.315684
vn -0.813117 -0.497432 0.302328
vn -0.999966 -0.008254 0.000000
vn -0.999966 0.008254 -0.000000
vn -0.813117 -0.497432 -0.302329
vn -0.804862 -0.502534 -0.315684
vn -0.502535 -0.315683 -0.804862
vn -0.497434 -0.302327 -0.813116
vn -0.497434 0.302327 -0.813116
vn -0.502535 0.315683 -0.804862
vn -0.804862 0.502534 -0.315684
vn -0.813117 0.497432 -0.302329
vn -0.315684 0.804862 -0.502535
vn -0.302328 0.813116 -0.497433
vn 0.000000 0.999966 -0.008254
vn 0.000000 0.999966 0.008254
vn -0.302328 0.813116 0.497433
vn -0.315684 0.804862 0.502535
vn -0.804862 0.502534 0.315684
vn -0.813117 0.497432 0.302328
vn 0.934173 -0.356821 0.000000
vn 0.577351 -0.577349 -0.577351
vn 0.356820 0.000000 -0.934173
vn 0.577351 0.577349 -0.577351
vn 0.934173 0.356821 0.000000
vn 0.356823 0.000000 0.934172
vn 0.577351 0.577349 0.577351
vn 0.577351 -0.577349 0.577351
vn 0.000000 -0.934173 0.356822
vn 0.000000 -0.934173 -0.356822
vn -0.356823 -0.000000 0.934172
vn -0.577351 -0.577349 0.577351
vn -0.934173 -0.356821 0.000000
vn -0.577351 -0.577349 -0.577351
vn -0.356820 0.000000 -0.934173
vn -0.577351 0.577349 -0.577351
vn 0.000000 0.934172 -0.356822
vn 0.000000 0.934173 0.356822
vn -0.577351 0.577349 0.577351
vn -0.934173 0.356821 0.000000
s 1
usemtl blinn3SG
f 45/59/1 53/69/2 3/3/3
f 53/69/2 59/78/4 3/3/3
f 59/78/4 7/8/5 3/3/3
f 11/14/6 17/23/7 5/6/8
f 17/23/7 23/32/9 5/6/8
f 23/32/9 29/39/10 5/6/8
f 27/37/11 41/54/12 1/1/13
f 41/54/12 35/47/14 1/1/13
f 35/47/14 47/61/15 1/1/13
f 57/75/16 81/106/17 9/11/18
f 81/106/17 89/116/19 9/11/18
f 89/116/19 13/17/20 9/11/18
f 87/113/21 95/123/22 15/20/23
f 95/123/22 101/131/24 15/20/23
f 101/131/24 19/26/25 15/20/23
f 99/128/26 107/140/27 21/29/28
f 107/140/27 37/49/29 21/29/28
f 37/49/29 25/35/30 21/29/28
f 65/86/31 71/95/32 33/45/33
f 71/95/32 49/63/34 33/45/33
f 49/63/34 43/56/35 33/45/33
f 39/52/36 105/137/37 31/42/38
f 105/137/37 113/149/39 31/42/38
f 113/149/39 61/81/40 31/42/38
f 69/92/41 77/101/42 51/66/43
f 77/101/42 83/109/44 51/66/43
f 83/109/44 55/72/45 51/66/43
f 111/146/46 119/156/47 63/84/48
f 119/156/47 73/97/49 63/84/48
f 73/97/49 67/89/50 63/84/48
f 117/154/51 91/118/52 75/99/53
f 91/118/52 85/111/54 75/99/53
f 85/111/54 79/104/55 75/99/53
f 115/152/56 109/143/57 93/120/58
f 109/143/57 103/134/59 93/120/58
f 103/134/59 97/125/60 93/120/58
f 3/3/3 2/2/61 45/59/1
f 45/59/1 2/2/61 46/60/62
f 2/2/61 1/1/13 46/60/62
f 46/60/62 1/1/13 47/61/15
f 5/6/8 4/4/63 11/14/6
f 11/14/6 4/4/63 12/16/64
f 4/5/63 3/3/3 12/15/64
f 12/15/64 3/3/3 7/8/5
f 1/1/13 6/7/65 27/37/11
f 27/37/11 6/7/65 28/38/66
f 6/7/65 5/6/8 28/38/66
f 28/38/66 5/6/8 29/39/10
f 9/11/18 8/9/67 57/75/16
f 57/75/16 8/9/67 58/77/68
f 8/10/67 7/8/5 58/76/68
f 58/76/68 7/8/5 59/78/4
f 11/14/6 10/12/69 17/23/7
f 17/23/7 10/12/69 18/25/70
f 10/13/69 9/11/18 18/24/70
f 18/24/70 9/11/18 13/17/20
f 15/20/23 14/18/71 87/113/21
f 87/113/21 14/18/71 88/115/72
f 14/19/71 13/17/20 88/114/72
f 88/114/72 13/17/20 89/116/19
f 17/23/7 16/21/73 23/32/9
f 23/32/9 16/21/73 24/34/74
f 16/22/73 15/20/23 24/33/74
f 24/33/74 15/20/23 19/26/25
f 21/29/28 20/27/75 99/128/26
f 99/128/26 20/27/75 100/130/76
f 20/28/75 19/26/25 100/129/76
f 100/129/76 19/26/25 101/131/24
f 23/32/9 22/30/77 29/39/10
f 29/39/10 22/30/77 30/41/78
f 22/31/77 21/29/28 30/40/78
f 30/40/78 21/29/28 25/35/30
f 27/37/11 26/36/79 41/54/12
f 41/54/12 26/36/79 42/55/80
f 26/36/79 25/35/30 42/55/80
f 42/55/80 25/35/30 37/49/29
f 33/45/33 32/43/81 65/86/31
f 65/86/31 32/43/81 66/88/82
f 32/44/81 31/42/38 66/87/82
f 66/87/82 31/42/38 61/81/40
f 35/47/14 34/46/83 47/61/15
f 47/61/15 34/46/83 48/62/84
f 34/46/83 33/45/33 48/62/84
f 48/62/84 33/45/33 43/56/35
f 31/42/38 36/48/85 39/52/36
f 39/52/36 36/48/85 40/53/86
f 36/48/85 35/47/14 40/53/86
f 40/53/86 35/47/14 41/54/12
f 39/52/36 38/50/87 105/137/37
f 105/137/37 38/50/87 106/139/88
f 38/51/87 37/49/29 106/138/88
f 106/138/88 37/49/29 107/140/27
f 45/59/1 44/57/89 53/69/2
f 53/69/2 44/57/89 54/71/90
f 44/58/89 43/56/35 54/70/90
f 54/70/90 43/56/35 49/63/34
f 51/66/43 50/64/91 69/92/41
f 69/92/41 50/64/91 70/94/92
f 50/65/91 49/63/34 70/93/92
f 70/93/92 49/63/34 71/95/32
f 53/69/2 52/67/93 59/78/4
f 59/78/4 52/67/93 60/80/94
f 52/68/93 51/66/43 60/79/94
f 60/79/94 51/66/43 55/72/45
f 57/75/16 56/73/95 81/106/17
f 81/106/17 56/73/95 82/108/96
f 56/74/95 55/72/45 82/107/96
f 82/107/96 55/72/45 83/109/44
f 63/84/48 62/82/97 111/146/46
f 111/146/46 62/82/97 112/148/98
f 62/83/97 61/81/40 112/147/98
f 112/147/98 61/81/40 113/149/39
f 65/86/31 64/85/99 71/95/32
f 71/95/32 64/85/99 72/96/100
f 64/85/99 63/84/48 72/96/100
f 72/96/100 63/84/48 67/89/50
f 69/92/41 68/90/101 77/101/42
f 77/101/42 68/90/101 78/103/102
f 68/91/101 67/89/50 78/102/102
f 78/102/102 67/89/50 73/97/49
f 75/99/53 74/98/103 117/154/51
f 117/154/51 74/98/103 118/155/104
f 74/98/103 73/97/49 118/155/104
f 118/155/104 73/97/49 119/156/47
f 77/101/42 76/100/105 83/109/44
f 83/109/44 76/100/105 84/110/106
f 76/100/105 75/99/53 84/110/106
f 84/110/106 75/99/53 79/104/55
f 81/106/17 80/105/107 89/116/19
f 89/116/19 80/105/107 90/117/108
f 80/105/107 79/104/55 90/117/108
f 90/117/108 79/104/55 85/111/54
f 87/113/21 86/112/109 95/123/22
f 95/123/22 86/112/109 96/124/110
f 86/112/109 85/111/54 96/124/110
f 96/124/110 85/111/54 91/118/52
f 93/120/58 92/119/111 115/152/56
f 115/152/56 92/119/111 116/153/112
f 92/119/111 91/118/52 116/153/112
f 116/153/112 91/118/52 117/154/51
f 95/123/22 94/121/113 101/131/24
f 101/131/24 94/121/113 102/133/114
f 94/122/113 93/120/58 102/132/114
f 102/132/114 93/120/58 97/125/60
f 99/128/26 98/126/115 107/140/27
f 107/140/27 98/126/115 108/142/116
f 98/127/115 97/125/60 108/141/116
f 108/141/116 97/125/60 103/134/59
f 105/137/37 104/135/117 113/149/39
f 113/149/39 104/135/117 114/151/118
f 104/136/117 103/134/59 114/150/118
f 114/150/118 103/134/59 109/143/57
f 111/146/46 110/144/119 119/156/47
f 119/156/47 110/144/119 120/158/120
f 110/145/119 109/143/57 120/157/120
f 120/157/120 109/143/57 115/152/56
f 6/7/65 1/1/13 121/159/121
f 121/159/121 1/1/13 2/2/61
f 2/2/61 3/3/3 121/159/121
f 121/159/121 3/3/3 4/5/63
f 4/4/63 5/6/8 121/159/121
f 121/159/121 5/6/8 6/7/65
f 12/15/64 7/8/5 122/162/122
f 122/162/122 7/8/5 8/10/67
f 8/9/67 9/11/18 122/160/122
f 122/160/122 9/11/18 10/13/69
f 10/12/69 11/14/6 122/161/122
f 122/161/122 11/14/6 12/16/64
f 18/24/70 13/17/20 123/165/123
f 123/165/123 13/17/20 14/19/71
f 14/18/71 15/20/23 123/163/123
f 123/163/123 15/20/23 16/22/73
f 16/21/73 17/23/7 123/164/123
f 123/164/123 17/23/7 18/25/70
f 24/33/74 19/26/25 124/168/124
f 124/168/124 19/26/25 20/28/75
f 20/27/75 21/29/28 124/166/124
f 124/166/124 21/29/28 22/31/77
f 22/30/77 23/32/9 124/167/124
f 124/167/124 23/32/9 24/34/74
f 30/40/78 25/35/30 125/169/125
f 125/169/125 25/35/30 26/36/79
f 26/36/79 27/37/11 125/169/125
f 125/169/125 27/37/11 28/38/66
f 28/38/66 29/39/10 125/169/125
f 125/169/125 29/39/10 30/41/78
f 36/48/85 31/42/38 126/170/126
f 126/170/126 31/42/38 32/44/81
f 32/43/81 33/45/33 126/170/126
f 126/170/126 33/45/33 34/46/83
f 34/46/83 35/47/14 126/170/126
f 126/170/126 35/47/14 36/48/85
f 42/55/80 37/49/29 127/171/127
f 127/171/127 37/49/29 38/51/87
f 38/50/87 39/52/36 127/171/127
f 127/171/127 39/52/36 40/53/86
f 40/53/86 41/54/12 127/171/127
f 127/171/127 41/54/12 42/55/80
f 48/62/84 43/56/35 128/172/128
f 128/172/128 43/56/35 44/58/89
f 44/57/89 45/59/1 128/172/128
f 128/172/128 45/59/1 46/60/62
f 46/60/62 47/61/15 128/172/128
f 128/172/128 47/61/15 48/62/84
f 54/70/90 49/63/34 129/175/129
f 129/175/129 49/63/34 50/65/91
f 50/64/91 51/66/43 129/173/129
f 129/173/129 51/66/43 52/68/93
f 52/67/93 53/69/2 129/174/129
f 129/174/129 53/69/2 54/71/90
f 60/79/94 55/72/45 130/178/130
f 130/178/130 55/72/45 56/74/95
f 56/73/95 57/75/16 130/176/130
f 130/176/130 57/75/16 58/77/68
f 58/76/68 59/78/4 130/177/130
f 130/177/130 59/78/4 60/80/94
f 66/87/82 61/81/40 131/180/131
f 131/180/131 61/81/40 62/83/97
f 62/82/97 63/84/48 131/179/131
f 131/179/131 63/84/48 64/85/99
f 64/85/99 65/86/31 131/179/131
f 131/179/131 65/86/31 66/88/82
f 72/96/100 67/89/50 132/182/132
f 132/182/132 67/89/50 68/91/101
f 68/90/101 69/92/41 132/181/132
f 132/181/132 69/92/41 70/94/92
f 70/93/92 71/95/32 132/182/132
f 132/182/132 71/95/32 72/96/100
f 78/102/102 73/97/49 133/183/133
f 133/183/133 73/97/49 74/98/103
f 74/98/103 75/99/53 133/183/133
f 133/183/133 75/99/53 76/100/105
f 76/100/105 77/101/42 133/183/133
f 133/183/133 77/101/42 78/103/102
f 84/110/106 79/104/55 134/184/134
f 134/184/134 79/104/55 80/105/107
f 80/105/107 81/106/17 134/184/134
f 134/184/134 81/106/17 82/108/96
f 82/107/96 83/109/44 134/184/134
f 134/184/134 83/109/44 84/110/106
f 90/117/108 85/111/54 135/185/135
f 135/185/135 85/111/54 86/112/109
f 86/112/109 87/113/21 135/185/135
f 135/185/135 87/113/21 88/115/72
f 88/114/72 89/116/19 135/185/135
f 135/185/135 89/116/19 90/117/108
f 96/124/110 91/118/52 136/186/136
f 136/186/136 91/118/52 92/119/111
f 92/119/111 93/120/58 136/186/136
f 136/186/136 93/120/58 94/122/113
f 94/121/113 95/123/22 136/186/136
f 136/186/136 95/123/22 96/124/110
f 102/132/114 97/125/60 137/189/137
f 137/189/137 97/125/60 98/127/115
f 98/126/115 99/128/26 137/187/137
f 137/187/137 99/128/26 100/130/76
f 100/129/76 101/131/24 137/188/137
f 137/188/137 101/131/24 102/133/114
f 108/141/116 103/134/59 138/192/138
f 138/192/138 103/134/59 104/136/117
f 104/135/117 105/137/37 138/190/138
f 138/190/138 105/137/37 106/139/88
f 106/138/88 107/140/27 138/191/138
f 138/191/138 107/140/27 108/142/116
f 114/150/118 109/143/57 139/195/139
f 139/195/139 109/143/57 110/145/119
f 110/144/119 111/146/46 139/193/139
f 139/193/139 111/146/46 112/148/98
f 112/147/98 113/149/39 139/194/139
f 139/194/139 113/149/39 114/151/118
f 120/157/120 115/152/56 140/196/140
f 140/196/140 115/152/56 116/153/112
f 116/153/112 117/154/51 140/196/140
f 140/196/140 117/154/51 118/155/104
f 118/155/104 119/156/47 140/196/140
f 140/196/140 119/156/47 120/158/120
