{
    "accessors": {
        "accessor_buffer_Sphere.003_0": {
            "bufferView": "bufferView_buffer_Sphere.003_0",
            "byteOffset": 0,
            "byteStride": 12,
            "componentType": 5126,
            "count": 11241,
            "max": [
                0.49978187680244446,
                0.49989035725593567,
                0.5
            ],
            "min": [
                -0.49978283047676086,
                -0.4998927116394043,
                -0.5
            ],
            "type": "VEC3"
        },
        "accessor_buffer_Sphere.003_1": {
            "bufferView": "bufferView_buffer_Sphere.003_0",
            "byteOffset": 134892,
            "byteStride": 12,
            "componentType": 5126,
            "count": 11241,
            "max": [
                0.999542236328125,
                0.999755859375,
                0.999969482421875
            ],
            "min": [
                -0.999542236328125,
                -0.999755859375,
                -1.0
            ],
            "type": "VEC3"
        },
        "accessor_buffer_Sphere.003_2": {
            "bufferView": "bufferView_buffer_Sphere.003_0",
            "byteOffset": 269784,
            "byteStride": 8,
            "componentType": 5126,
            "count": 11241,
            "max": [
                1.4266633987426758,
                1.0
            ],
            "min": [
                0.0,
                0.0
            ],
            "type": "VEC2"
        },
        "accessor_buffer_Sphere.003_3": {
            "bufferView": "bufferView_buffer_Sphere.003_0",
            "byteOffset": 359712,
            "byteStride": 8,
            "componentType": 5126,
            "count": 11241,
            "max": [
                1.4266633987426758,
                1.0
            ],
            "min": [
                0.0,
                0.0
            ],
            "type": "VEC2"
        },
        "accessor_buffer_Sphere.003_4": {
            "bufferView": "bufferView_buffer_Sphere.003_1",
            "byteOffset": 0,
            "byteStride": 2,
            "componentType": 5123,
            "count": 66600,
            "max": [
                11240
            ],
            "min": [
                0
            ],
            "type": "SCALAR"
        },
        "accessor_buffer_Sphere_0": {
            "bufferView": "bufferView_buffer_Sphere_0",
            "byteOffset": 0,
            "byteStride": 12,
            "componentType": 5126,
            "count": 122,
            "max": [
                0.49999988079071045,
                0.5,
                0.5
            ],
            "min": [
                -0.4999998211860657,
                -0.4999997615814209,
                -0.5
            ],
            "type": "VEC3"
        },
        "accessor_buffer_Sphere_1": {
            "bufferView": "bufferView_buffer_Sphere_0",
            "byteOffset": 1464,
            "byteStride": 12,
            "componentType": 5126,
            "count": 122,
            "max": [
                1.0,
                1.0,
                1.0
            ],
            "min": [
                -1.0,
                -1.0,
                -1.0
            ],
            "type": "VEC3"
        },
        "accessor_buffer_Sphere_2": {
            "bufferView": "bufferView_buffer_Sphere_0",
            "byteOffset": 2928,
            "byteStride": 8,
            "componentType": 5126,
            "count": 122,
            "max": [
                1.125,
                1.0
            ],
            "min": [
                0.0625,
                0.0
            ],
            "type": "VEC2"
        },
        "accessor_buffer_Sphere_3": {
            "bufferView": "bufferView_buffer_Sphere_0",
            "byteOffset": 3904,
            "byteStride": 8,
            "componentType": 5126,
            "count": 122,
            "max": [
                1.125,
                1.0
            ],
            "min": [
                0.0625,
                0.0
            ],
            "type": "VEC2"
        },
        "accessor_buffer_Sphere_4": {
            "bufferView": "bufferView_buffer_Sphere_1",
            "byteOffset": 0,
            "byteStride": 2,
            "componentType": 5123,
            "count": 672,
            "max": [
                121
            ],
            "min": [
                0
            ],
            "type": "SCALAR"
        }
    },
    "asset": {
        "profile": {
            "api": "WebGL",
            "version": "1.0.3"
        },
        "version": "1.0"
    },
    "bufferViews": {
        "bufferView_buffer_Sphere.003_0": {
            "buffer": "buffer_combined",
            "byteLength": 449640,
            "byteOffset": 0,
            "target": 34962
        },
        "bufferView_buffer_Sphere.003_1": {
            "buffer": "buffer_combined",
            "byteLength": 133200,
            "byteOffset": 449640,
            "target": 34963
        },
        "bufferView_buffer_Sphere_0": {
            "buffer": "buffer_combined",
            "byteLength": 4880,
            "byteOffset": 582840,
            "target": 34962
        },
        "bufferView_buffer_Sphere_1": {
            "buffer": "buffer_combined",
            "byteLength": 1344,
            "byteOffset": 587720,
            "target": 34963
        }
    },
    "buffers": {
        "buffer_combined": {
            "byteLength": 589064,
            "type": "arraybuffer",
            "uri": "buffer_combined.bin"
        }
    },
    "extensions": {
        "KHR_materials_common": {
            "lights": {}
        }
    },
    "extensionsUsed": [
        "KHR_materials_common"
    ],
    "images": {
        "image_lightmap.001": {
            "uri": "lightmap.jpg"
        },
        "image_world.jpg": {
            "uri": "world.jpg"
        }
    },
    "materials": {
        "material_Material.001": {
            "extensions": {
                "KHR_materials_common": {
                    "technique": "CONSTANT",
                    "values": {
                        "ambient": [
                            1.0,
                            1.0,
                            1.0,
                            1.0
                        ],
                        "diffuse": "texture_Texture.001",
                        "doubleSided": false,
                        "emission": "texture_Texture.001",
                        "shininess": 50,
                        "specular": "texture_Texture.002",
                        "transparency": 1.0,
                        "transparent": false
                    }
                }
            },
            "name": "Material.001"
        }
    },
    "meshes": {
        "mesh_Sphere": {
            "name": "Sphere",
            "primitives": [
                {
                    "attributes": {
                        "NORMAL": "accessor_buffer_Sphere_1",
                        "POSITION": "accessor_buffer_Sphere_0",
                        "TEXCOORD_0": "accessor_buffer_Sphere_2",
                        "TEXCOORD_1": "accessor_buffer_Sphere_3"
                    },
                    "indices": "accessor_buffer_Sphere_4",
                    "material": "material_Material.001",
                    "mode": 4
                }
            ]
        },
        "mesh_Sphere.003": {
            "name": "Sphere.003",
            "primitives": [
                {
                    "attributes": {
                        "NORMAL": "accessor_buffer_Sphere.003_1",
                        "POSITION": "accessor_buffer_Sphere.003_0",
                        "TEXCOORD_0": "accessor_buffer_Sphere.003_2",
                        "TEXCOORD_1": "accessor_buffer_Sphere.003_3"
                    },
                    "indices": "accessor_buffer_Sphere.003_4",
                    "material": "material_Material.001",
                    "mode": 4
                }
            ]
        }
    },
    "nodes": {
        "node_highpoly": {
            "children": [],
            "matrix": [
                1.0,
                0.0,
                0.0,
                0.0,
                0.0,
                1.0,
                0.0,
                0.0,
                0.0,
                0.0,
                1.0,
                0.0,
                0.0,
                0.0,
                0.0,
                1.0
            ],
            "meshes": [
                "mesh_Sphere.003"
            ],
            "name": "highpoly"
        },
        "node_lowpoly": {
            "children": [],
            "matrix": [
                1.0,
                0.0,
                0.0,
                0.0,
                0.0,
                1.0,
                0.0,
                0.0,
                0.0,
                0.0,
                1.0,
                0.0,
                0.0,
                0.0,
                0.0,
                1.0
            ],
            "meshes": [
                "mesh_Sphere"
            ],
            "name": "lowpoly"
        },
        "node_scene_Scene_root": {
            "children": [
                "node_lowpoly",
                "node_highpoly"
            ],
            "matrix": [
                1.0,
                0.0,
                0.0,
                0.0,
                0.0,
                0.0,
                -1.0,
                0.0,
                0.0,
                1.0,
                0.0,
                0.0,
                0.0,
                0.0,
                0.0,
                1.0
            ],
            "name": "node_scene_Scene_root"
        }
    },
    "samplers": {
        "sampler_default": {}
    },
    "scene": "scene_Scene",
    "scenes": {
        "scene_Scene": {
            "extras": {
                "active_camera": null,
                "background_color": [
                    0.05087608844041824,
                    0.05087608844041824,
                    0.05087608844041824
                ],
                "frames_per_second": 24
            },
            "name": "Scene",
            "nodes": [
                "node_scene_Scene_root"
            ]
        }
    },
    "textures": {
        "texture_Texture.001": {
            "format": 6408,
            "internalFormat": 6408,
            "sampler": "sampler_default",
            "source": "image_world.jpg"
        },
        "texture_Texture.002": {
            "format": 6408,
            "internalFormat": 6408,
            "sampler": "sampler_default",
            "source": "image_lightmap.001"
        }
    }
}
