# This file uses centimeters as units for non-parametric coordinates.

mtllib d10_high.mtl
v 2.929154 -0.201977 -2.331738
v 3.046536 -0.228370 -2.213429
v 3.122769 -0.201977 -2.065242
v 3.162505 -0.329173 -2.103666
v 3.117739 -0.444104 -2.080715
v 3.048673 -0.468016 -2.214979
v 2.942321 -0.444104 -2.322164
v 2.977975 -0.329173 -2.357644
v 1.015452 0.444105 -3.608123
v 1.164489 0.468017 -3.583929
v 1.299284 0.444105 -3.515908
v 1.322013 0.329174 -3.560767
v 1.312452 0.201978 -3.506335
v 1.163674 0.228371 -3.581422
v 0.999176 0.201978 -3.608123
v 1.023440 0.329174 -3.657785
v -1.312452 -0.201978 -3.506335
v -1.163672 -0.228371 -3.581422
v -0.999175 -0.201978 -3.608123
v -1.023440 -0.329174 -3.657785
v -1.015452 -0.444105 -3.608123
v -1.164488 -0.468017 -3.583929
v -1.299284 -0.444105 -3.515908
v -1.322013 -0.329174 -3.560767
v -3.117738 0.444104 -2.080715
v -3.048670 0.468016 -2.214979
v -2.942320 0.444104 -2.322164
v -2.977976 0.329173 -2.357644
v -2.929152 0.201977 -2.331738
v -3.046535 0.228370 -2.213429
v -3.122769 0.201977 -2.065242
v -3.162503 0.329173 -2.103666
v -3.740291 -0.201977 0.164704
v -3.765723 -0.228371 -0.000007
v -3.740292 -0.201977 -0.164696
v -3.795023 -0.329173 -0.156968
v -3.745321 -0.444104 -0.149220
v -3.768363 -0.468017 -0.000007
v -3.745321 -0.444104 0.149220
v -3.795023 -0.329173 0.156970
v -2.942320 0.444105 2.322175
v -3.048669 0.468017 2.214995
v -3.117737 0.444105 2.080726
v -3.162501 0.329174 2.103672
v -3.122766 0.201978 2.065253
v -3.046533 0.228371 2.213439
v -2.929150 0.201978 2.331733
v -2.977973 0.329174 2.357647
v -0.999175 -0.201978 3.608128
v -1.163672 -0.228371 3.581417
v -1.312452 -0.201978 3.506327
v -1.322013 -0.329174 3.560778
v -1.299284 -0.444104 3.515908
v -1.164488 -0.468017 3.583934
v -1.015452 -0.444105 3.608128
v -1.023440 -0.329174 3.657785
v 1.299284 0.444104 3.515908
v 1.164489 0.468017 3.583934
v 1.015452 0.444104 3.608128
v 1.023440 0.329174 3.657785
v 0.999176 0.201978 3.608128
v 1.163674 0.228371 3.581417
v 1.312452 0.201978 3.506327
v 1.322013 0.329174 3.560778
v 3.122767 -0.201978 2.065253
v 3.046533 -0.228371 2.213439
v 2.929150 -0.201978 2.331733
v 2.977974 -0.329174 2.357647
v 2.942321 -0.444105 2.322175
v 3.048670 -0.468017 2.214995
v 3.117738 -0.444105 2.080726
v 3.162503 -0.329174 2.103672
v 3.745321 0.444104 -0.149220
v 3.768364 0.468017 -0.000007
v 3.745321 0.444104 0.149220
v 3.795024 0.329173 0.156970
v 3.740293 0.201977 0.164704
v 3.765724 0.228371 -0.000007
v 3.740293 0.201977 -0.164696
v 3.795024 0.329173 -0.156968
v 0.208061 -3.180948 -0.071304
v 0.198110 -3.204804 -0.000001
v 0.208061 -3.180950 0.071310
v 0.164099 -3.202877 0.119224
v 0.132114 -3.180948 0.175839
v 0.061220 -3.204803 0.188412
v -0.003523 -3.180949 0.219912
v -0.062680 -3.202877 0.192915
v -0.126411 -3.180948 0.179989
v -0.160274 -3.204803 0.116444
v -0.210239 -3.180950 0.064607
v -0.202837 -3.202877 -0.000001
v -0.210239 -3.180948 -0.064605
v -0.160274 -3.204803 -0.116447
v -0.126411 -3.180949 -0.179981
v -0.062680 -3.202877 -0.192907
v -0.003523 -3.180949 -0.219910
v 0.061220 -3.204803 -0.188412
v 0.132114 -3.180949 -0.175839
v 0.164099 -3.202877 -0.119221
v 0.210239 3.180950 0.064607
v 0.202838 3.202877 -0.000001
v 0.210239 3.180948 -0.064605
v 0.160274 3.204803 -0.116447
v 0.126412 3.180949 -0.179981
v 0.062681 3.202877 -0.192907
v 0.003524 3.180949 -0.219910
v -0.061219 3.204803 -0.188412
v -0.132112 3.180949 -0.175839
v -0.164099 3.202877 -0.119221
v -0.208061 3.180948 -0.071304
v -0.198108 3.204804 -0.000001
v -0.208060 3.180950 0.071310
v -0.164098 3.202877 0.119224
v -0.132112 3.180948 0.175839
v -0.061219 3.204803 0.188412
v 0.003524 3.180949 0.219912
v 0.062681 3.202877 0.192915
v 0.126412 3.180948 0.179989
v 0.160274 3.204803 0.116444
v 3.089722 -0.354257 -2.244802
v 1.180168 0.354258 -3.632176
v -1.180168 -0.354258 -3.632176
v -3.089720 0.354257 -2.244802
v -3.819103 -0.354257 -0.000007
v -3.089717 0.354258 2.244813
v -1.180168 -0.354258 3.632186
v 1.180168 0.354258 3.632186
v 3.089719 -0.354258 2.244813
v 3.819103 0.354257 -0.000007
v 0.000000 -3.292743 -0.000001
v 0.000000 3.292743 -0.000001
vt 0.280486 0.364872
vt 0.271622 0.613822
vt 0.127565 0.588798
vt 0.727520 0.952418
vt 0.720322 0.684555
vt 0.855172 0.889414
vt 0.725010 0.681288
vt 0.979921 0.771934
vt 0.874129 0.876690
vt 0.047836 0.445548
vt 0.275322 0.361100
vt 0.110553 0.575258
vt 0.727028 0.675114
vt 0.959498 0.606323
vt 0.986399 0.750003
vt 0.014372 0.280107
vt 0.273587 0.355890
vt 0.040691 0.425310
vt 0.725282 0.669825
vt 0.889981 0.457983
vt 0.952260 0.585732
vt 0.126170 0.153004
vt 0.275525 0.349766
vt 0.020872 0.258224
vt 0.719909 0.665995
vt 0.728760 0.418638
vt 0.873023 0.444431
vt 0.272670 0.075811
vt 0.280033 0.346538
vt 0.144886 0.140510
vt 0.714176 0.666002
vt 0.561051 0.444436
vt 0.705324 0.418631
vt 0.421500 0.140510
vt 0.286390 0.346545
vt 0.293702 0.075809
vt 0.708788 0.669838
vt 0.481825 0.585734
vt 0.544096 0.457983
vt 0.545502 0.258224
vt 0.290829 0.349764
vt 0.440220 0.152998
vt 0.707064 0.675132
vt 0.447686 0.750007
vt 0.474583 0.606321
vt 0.525681 0.425306
vt 0.292728 0.355890
vt 0.552003 0.280096
vt 0.709070 0.681293
vt 0.559952 0.876682
vt 0.454165 0.771929
vt 0.455835 0.575267
vt 0.291040 0.361096
vt 0.518540 0.445530
vt 0.713755 0.684555
vt 0.706557 0.952428
vt 0.578911 0.889414
vt 0.294760 0.613822
vt 0.285934 0.364868
vt 0.438820 0.588789
vt 0.117799 0.583789
vt 0.278660 0.361960
vt 0.857343 0.897858
vt 0.268453 0.622111
vt 0.864825 0.883314
vt 0.722089 0.682086
vt 0.104783 0.582728
vt 0.989145 0.774965
vt 0.044044 0.435548
vt 0.275425 0.358144
vt 0.985223 0.761613
vt 0.724817 0.677814
vt 0.031910 0.425214
vt 0.968227 0.606437
vt 0.015584 0.268485
vt 0.275765 0.353242
vt 0.956169 0.595926
vt 0.725217 0.672790
vt 0.011578 0.255243
vt 0.895538 0.450581
vt 0.135386 0.146432
vt 0.278381 0.349008
vt 0.882779 0.449529
vt 0.721852 0.668923
vt 0.142625 0.132161
vt 0.731980 0.410261
vt 0.283193 0.073627
vt 0.283214 0.347858
vt 0.717043 0.418309
vt 0.717036 0.667054
vt 0.293728 0.066500
vt 0.555263 0.436837
vt 0.430995 0.146427
vt 0.288022 0.349006
vt 0.551300 0.449533
vt 0.712235 0.668914
vt 0.447602 0.147936
vt 0.475089 0.580442
vt 0.550784 0.268485
vt 0.290571 0.353251
vt 0.477908 0.595928
vt 0.708889 0.672776
vt 0.561311 0.277319
vt 0.438550 0.752713
vt 0.522343 0.435565
vt 0.290913 0.358148
vt 0.448862 0.761604
vt 0.709253 0.677801
vt 0.525365 0.450756
vt 0.552570 0.881787
vt 0.448562 0.583789
vt 0.287736 0.361951
vt 0.569249 0.883314
vt 0.712003 0.682073
vt 0.444540 0.596382
vt 0.706698 0.961695
vt 0.283193 0.614217
vt 0.283219 0.363785
vt 0.717040 0.954489
vt 0.717031 0.683323
vt 0.870558 0.892358
vt 0.994501 0.764390
vt 0.965442 0.592469
vt 0.888516 0.442265
vt 0.717040 0.407129
vt 0.545563 0.442265
vt 0.468644 0.592467
vt 0.439583 0.764385
vt 0.563520 0.892358
vt 0.717043 0.963481
vt 0.717040 0.675351
vt 0.283188 0.355636
vt 0.297927 0.622111
vt 0.283190 0.624498
vt 0.727378 0.961691
vt 0.461603 0.582732
vt 0.454602 0.591404
vt 0.576736 0.897862
vt 0.534466 0.425210
vt 0.530291 0.438724
vt 0.444941 0.774956
vt 0.554793 0.255245
vt 0.560534 0.265577
vt 0.465857 0.606437
vt 0.423758 0.132161
vt 0.435908 0.138111
vt 0.538536 0.450581
vt 0.272644 0.066502
vt 0.283188 0.064210
vt 0.702103 0.410259
vt 0.118786 0.147941
vt 0.130475 0.138113
vt 0.878809 0.436830
vt 0.005062 0.277330
vt 0.005836 0.265582
vt 0.958997 0.580438
vt 0.041014 0.450768
vt 0.036088 0.438724
vt 0.995535 0.752704
vt 0.121839 0.596395
vt 0.111779 0.591400
vt 0.881510 0.881791
vn 0.569297 0.737928 -0.362442
vn 0.569967 0.715940 -0.403197
vn 0.580293 0.699763 -0.416642
vn 0.714363 -0.699764 -0.004019
vn 0.673608 -0.737928 -0.041408
vn 0.698106 -0.715940 -0.008825
vn 0.247543 -0.737928 -0.627841
vn 0.224576 -0.699763 -0.678157
vn 0.224122 -0.715940 -0.661210
vn 0.559592 0.715940 -0.417476
vn 0.520625 0.737928 -0.429433
vn 0.575571 0.699763 -0.423143
vn 0.168775 -0.737926 -0.653437
vn 0.207335 -0.715939 -0.666666
vn 0.216924 -0.699763 -0.680644
vn -0.216924 0.699763 -0.680644
vn -0.168775 0.737926 -0.653437
vn -0.207335 0.715939 -0.666666
vn -0.520625 -0.737928 -0.429433
vn -0.575571 -0.699763 -0.423143
vn -0.559592 -0.715940 -0.417476
vn -0.224122 0.715940 -0.661210
vn -0.247543 0.737928 -0.627841
vn -0.224576 0.699763 -0.678157
vn -0.569297 -0.737928 -0.362442
vn -0.569967 -0.715940 -0.403197
vn -0.580293 -0.699763 -0.416642
vn -0.714363 0.699764 -0.004019
vn -0.673608 0.737928 -0.041408
vn -0.698106 0.715940 -0.008825
vn -0.569298 -0.737929 0.362438
vn -0.580293 -0.699764 0.416642
vn -0.569968 -0.715941 0.403194
vn -0.698106 0.715940 0.008826
vn -0.673608 0.737928 0.041408
vn -0.714363 0.699764 0.004019
vn -0.520623 -0.737927 0.429435
vn -0.559594 -0.715940 0.417475
vn -0.575571 -0.699763 0.423143
vn -0.224572 0.699763 0.678159
vn -0.247539 0.737928 0.627843
vn -0.224117 0.715939 0.661213
vn 0.168784 -0.737927 0.653434
vn 0.216929 -0.699762 0.680643
vn 0.207335 -0.715939 0.666666
vn -0.207335 0.715939 0.666666
vn -0.168784 0.737927 0.653434
vn -0.216929 0.699762 0.680643
vn 0.247539 -0.737928 0.627843
vn 0.224117 -0.715939 0.661213
vn 0.224572 -0.699763 0.678159
vn 0.575571 0.699763 0.423143
vn 0.520623 0.737927 0.429435
vn 0.559593 0.715940 0.417475
vn 0.673608 -0.737928 0.041408
vn 0.714363 -0.699764 0.004019
vn 0.698106 -0.715940 0.008826
vn 0.569968 0.715941 0.403194
vn 0.569298 0.737929 0.362438
vn 0.580293 0.699764 0.416642
vn 0.570900 0.708539 -0.414785
vn 0.553458 0.729376 -0.402113
vn 0.952171 -0.084663 -0.293603
vn 0.942901 0.084645 -0.322139
vn 0.503773 -0.782464 -0.366009
vn 0.486971 -0.798551 -0.353803
vn 0.573466 -0.084679 -0.814842
vn 0.597743 0.084638 -0.797207
vn 0.192416 0.782464 -0.592222
vn 0.185997 0.798551 -0.572470
vn 0.218060 -0.708538 -0.671136
vn 0.211398 -0.729376 -0.650631
vn -0.015006 0.084658 -0.996297
vn 0.015005 -0.084658 -0.996297
vn -0.218060 0.708538 -0.671136
vn -0.211398 0.729376 -0.650631
vn -0.192416 -0.782464 -0.592222
vn -0.185997 -0.798551 -0.572470
vn -0.597744 -0.084638 -0.797207
vn -0.573466 0.084679 -0.814842
vn -0.503773 0.782464 -0.366009
vn -0.486971 0.798551 -0.353803
vn -0.570900 -0.708539 -0.414785
vn -0.553458 -0.729376 -0.402113
vn -0.952171 0.084663 -0.293603
vn -0.942901 -0.084645 -0.322139
vn -0.705672 0.708539 -0.000001
vn -0.684113 0.729376 -0.000000
vn -0.622696 -0.782464 -0.000003
vn -0.601927 -0.798551 -0.000001
vn -0.942898 -0.084659 0.322142
vn -0.952171 0.084657 0.293605
vn -0.503770 0.782464 0.366013
vn -0.486968 0.798551 0.353805
vn -0.570896 -0.708538 0.414790
vn -0.553454 -0.729376 0.402117
vn -0.573471 0.084654 0.814840
vn -0.597749 -0.084660 0.797201
vn -0.218078 0.708539 0.671129
vn -0.211416 0.729376 0.650625
vn -0.192417 -0.782464 0.592221
vn -0.185995 -0.798552 0.572469
vn 0.015002 -0.084648 0.996298
vn -0.015002 0.084648 0.996298
vn 0.192417 0.782464 0.592221
vn 0.185995 0.798552 0.572469
vn 0.218078 -0.708539 0.671129
vn 0.211416 -0.729376 0.650625
vn 0.597748 0.084659 0.797201
vn 0.573471 -0.084654 0.814840
vn 0.570896 0.708539 0.414790
vn 0.553454 0.729377 0.402117
vn 0.503770 -0.782464 0.366013
vn 0.486968 -0.798551 0.353805
vn 0.952171 -0.084657 0.293605
vn 0.942898 0.084659 0.322142
vn 0.622696 0.782464 -0.000003
vn 0.601927 0.798551 -0.000001
vn 0.705672 -0.708539 -0.000001
vn 0.684113 -0.729376 -0.000000
vn 0.808866 -0.019464 -0.587671
vn 0.308951 0.019444 -0.950879
vn -0.308951 -0.019444 -0.950879
vn -0.808866 0.019464 -0.587671
vn -0.999811 -0.019457 0.000000
vn -0.808865 0.019451 0.587673
vn -0.308954 -0.019431 0.950879
vn 0.308953 0.019431 0.950879
vn 0.808865 -0.019451 0.587673
vn 0.999811 0.019457 -0.000000
vn -0.000001 -1.000000 -0.000001
vn 0.000001 1.000000 -0.000001
g d10_smooth Smooth Dice
usemtl blinn8SG
f 103/1/1 73/2/2 3/3/3
f 79/4/4 81/5/5 5/6/6
f 99/7/7 13/8/8 7/9/9
f 11/10/10 105/11/11 1/12/12
f 97/13/13 21/14/14 15/15/15
f 19/16/16 107/17/17 9/18/18
f 95/19/19 29/20/20 23/21/21
f 27/22/22 109/23/23 17/24/24
f 93/25/25 37/26/26 31/27/27
f 35/28/28 111/29/29 25/30/30
f 91/31/31 45/32/32 39/33/33
f 43/34/34 113/35/35 33/36/36
f 89/37/37 53/38/38 47/39/39
f 51/40/40 115/41/41 41/42/42
f 87/43/43 61/44/44 55/45/45
f 59/46/46 117/47/47 49/48/48
f 85/49/49 69/50/50 63/51/51
f 67/52/52 119/53/53 57/54/54
f 83/55/55 77/56/56 71/57/57
f 75/58/58 101/59/59 65/60/60
f 3/3/3 2/61/61 104/62/62 103/1/1
f 2/61/61 1/12/12 105/11/11 104/62/62
f 5/6/6 4/63/63 80/135/64 79/4/4
f 4/160/63 3/3/3 73/2/2 80/64/64
f 7/9/9 6/65/65 100/66/66 99/7/7
f 6/65/65 5/6/6 81/5/5 100/66/66
f 1/12/12 8/67/67 12/157/68 11/10/10
f 8/162/67 7/9/9 13/8/8 12/68/68
f 11/10/10 10/69/69 106/70/70 105/11/11
f 10/69/69 9/18/18 107/17/17 106/70/70
f 15/15/15 14/71/71 98/72/72 97/13/13
f 14/71/71 13/8/8 99/7/7 98/72/72
f 9/18/18 16/73/73 20/154/74 19/16/16
f 16/159/73 15/15/15 21/14/14 20/74/74
f 19/16/16 18/75/75 108/76/76 107/17/17
f 18/75/75 17/24/24 109/23/23 108/76/76
f 23/21/21 22/77/77 96/78/78 95/19/19
f 22/77/77 21/14/14 97/13/13 96/78/78
f 17/24/24 24/79/79 28/151/80 27/22/22
f 24/156/79 23/21/21 29/20/20 28/80/80
f 27/22/22 26/81/81 110/82/82 109/23/23
f 26/81/81 25/30/30 111/29/29 110/82/82
f 31/27/27 30/83/83 94/84/84 93/25/25
f 30/83/83 29/20/20 95/19/19 94/84/84
f 25/30/30 32/85/85 36/148/86 35/28/28
f 32/153/85 31/27/27 37/26/26 36/86/86
f 35/28/28 34/87/87 112/88/88 111/29/29
f 34/87/87 33/36/36 113/35/35 112/88/88
f 39/33/33 38/89/89 92/90/90 91/31/31
f 38/89/89 37/26/26 93/25/25 92/90/90
f 33/36/36 40/91/91 44/145/92 43/34/34
f 40/150/91 39/33/33 45/32/32 44/92/92
f 43/34/34 42/93/93 114/94/94 113/35/35
f 42/93/93 41/42/42 115/41/41 114/94/94
f 47/39/39 46/95/95 90/96/96 89/37/37
f 46/95/95 45/32/32 91/31/31 90/96/96
f 41/42/42 48/97/97 52/142/98 51/40/40
f 48/147/97 47/39/39 53/38/38 52/98/98
f 51/40/40 50/99/99 116/100/100 115/41/41
f 50/99/99 49/48/48 117/47/47 116/100/100
f 55/45/45 54/101/101 88/102/102 87/43/43
f 54/101/101 53/38/38 89/37/37 88/102/102
f 49/48/48 56/103/103 60/139/104 59/46/46
f 56/144/103 55/45/45 61/44/44 60/104/104
f 59/46/46 58/105/105 118/106/106 117/47/47
f 58/105/105 57/54/54 119/53/53 118/106/106
f 63/51/51 62/107/107 86/108/108 85/49/49
f 62/107/107 61/44/44 87/43/43 86/108/108
f 57/54/54 64/109/109 68/136/110 67/52/52
f 64/141/109 63/51/51 69/50/50 68/110/110
f 67/52/52 66/111/111 120/112/112 119/53/53
f 66/111/111 65/60/60 101/59/59 120/112/112
f 71/57/57 70/113/113 84/114/114 83/55/55
f 70/113/113 69/50/50 85/49/49 84/114/114
f 65/60/60 72/115/115 76/133/116 75/58/58
f 72/138/115 71/57/57 77/56/56 76/116/116
f 75/58/58 74/117/117 102/118/118 101/59/59
f 74/117/117 73/2/2 103/1/1 102/118/118
f 79/4/4 78/119/119 82/120/120 81/5/5
f 78/119/119 77/56/56 83/55/55 82/120/120
f 8/67/67 1/12/12 2/61/61 121/161/121
f 2/61/61 3/3/3 4/160/63 121/161/121
f 4/63/63 5/6/6 6/65/65 121/121/121
f 6/65/65 7/9/9 8/162/67 121/121/121
f 16/73/73 9/18/18 10/69/69 122/158/122
f 10/69/69 11/10/10 12/157/68 122/158/122
f 12/68/68 13/8/8 14/71/71 122/122/122
f 14/71/71 15/15/15 16/159/73 122/122/122
f 24/79/79 17/24/24 18/75/75 123/155/123
f 18/75/75 19/16/16 20/154/74 123/155/123
f 20/74/74 21/14/14 22/77/77 123/123/123
f 22/77/77 23/21/21 24/156/79 123/123/123
f 32/85/85 25/30/30 26/81/81 124/152/124
f 26/81/81 27/22/22 28/151/80 124/152/124
f 28/80/80 29/20/20 30/83/83 124/124/124
f 30/83/83 31/27/27 32/153/85 124/124/124
f 40/91/91 33/36/36 34/87/87 125/149/125
f 34/87/87 35/28/28 36/148/86 125/149/125
f 36/86/86 37/26/26 38/89/89 125/125/125
f 38/89/89 39/33/33 40/150/91 125/125/125
f 48/97/97 41/42/42 42/93/93 126/146/126
f 42/93/93 43/34/34 44/145/92 126/146/126
f 44/92/92 45/32/32 46/95/95 126/126/126
f 46/95/95 47/39/39 48/147/97 126/126/126
f 56/103/103 49/48/48 50/99/99 127/143/127
f 50/99/99 51/40/40 52/142/98 127/143/127
f 52/98/98 53/38/38 54/101/101 127/127/127
f 54/101/101 55/45/45 56/144/103 127/127/127
f 64/109/109 57/54/54 58/105/105 128/140/128
f 58/105/105 59/46/46 60/139/104 128/140/128
f 60/104/104 61/44/44 62/107/107 128/128/128
f 62/107/107 63/51/51 64/141/109 128/128/128
f 72/115/115 65/60/60 66/111/111 129/137/129
f 66/111/111 67/52/52 68/136/110 129/137/129
f 68/110/110 69/50/50 70/113/113 129/129/129
f 70/113/113 71/57/57 72/138/115 129/129/129
f 80/64/64 73/2/2 74/117/117 130/134/130
f 74/117/117 75/58/58 76/133/116 130/134/130
f 76/116/116 77/56/56 78/119/119 130/130/130
f 78/119/119 79/4/4 80/135/64 130/130/130
f 100/66/66 81/5/5 82/120/120 131/131/131
f 82/120/120 83/55/55 84/114/114 131/131/131
f 84/114/114 85/49/49 86/108/108 131/131/131
f 86/108/108 87/43/43 88/102/102 131/131/131
f 88/102/102 89/37/37 90/96/96 131/131/131
f 90/96/96 91/31/31 92/90/90 131/131/131
f 92/90/90 93/25/25 94/84/84 131/131/131
f 94/84/84 95/19/19 96/78/78 131/131/131
f 96/78/78 97/13/13 98/72/72 131/131/131
f 98/72/72 99/7/7 100/66/66 131/131/131
f 120/112/112 101/59/59 102/118/118 132/132/132
f 102/118/118 103/1/1 104/62/62 132/132/132
f 104/62/62 105/11/11 106/70/70 132/132/132
f 106/70/70 107/17/17 108/76/76 132/132/132
f 108/76/76 109/23/23 110/82/82 132/132/132
f 110/82/82 111/29/29 112/88/88 132/132/132
f 112/88/88 113/35/35 114/94/94 132/132/132
f 114/94/94 115/41/41 116/100/100 132/132/132
f 116/100/100 117/47/47 118/106/106 132/132/132
f 118/106/106 119/53/53 120/112/112 132/132/132
