# This file uses centimeters as units for non-parametric coordinates.

mtllib d4_high.mtl
v -1.836759 -1.793383 3.349212
v -1.922054 -1.793383 3.321876
v -1.988381 -1.793383 3.261682
v -1.950485 -1.873799 3.272627
v -1.887300 -1.936333 3.261682
v -1.865191 -1.873799 3.321876
v 3.817354 -1.793383 -0.090273
v 3.836321 -1.793383 -0.002721
v 3.817354 -1.793383 0.084809
v 3.807889 -1.873799 0.046528
v 3.766813 -1.936333 -0.002721
v 3.807889 -1.873799 -0.051969
v -1.988381 -1.793383 -3.267124
v -1.922054 -1.793383 -3.327317
v -1.836759 -1.793383 -3.354668
v -1.865191 -1.873799 -3.327317
v -1.887300 -1.936333 -3.267124
v -1.950485 -1.873799 -3.278084
v 0.047945 3.537366 -0.090273
v -0.031027 3.555248 -0.051969
v -0.103677 3.537366 -0.002721
v -0.031027 3.555248 0.046528
v 0.047945 3.537366 0.084809
v 0.054267 3.555248 -0.002721
v -1.917318 -1.850347 3.313666
v 3.826851 -1.850347 -0.002721
v -1.917318 -1.850347 -3.319122
v -0.002595 3.565308 -0.002721
vt 0.250000 0.368239
vt 0.747834 0.371752
vt 0.252166 0.371752
vt 0.750000 0.368240
vt 0.502166 0.003249
vt 0.752166 0.371751
vt 0.500000 0.006760
vt 0.247834 0.371752
vt 0.497834 0.003248
vt 0.743239 0.378379
vt 0.004331 0.000000
vt 0.745669 0.375000
vt 0.006759 0.003379
vt 0.252166 0.371751
vt 0.002166 0.003249
vt 0.256758 0.371621
vt 0.747834 0.378249
vt 0.254332 0.375000
vt 0.993240 0.003380
vt 0.497834 0.746752
vt 0.995669 0.000000
vt 0.500001 0.743239
vt 0.745669 0.375000
vt 0.502166 0.746752
vt 0.743240 0.371620
vt 0.997834 0.003249
vt 0.747834 0.371751
vt 0.256762 0.378380
vt 0.504332 0.000000
vt 0.252166 0.378249
vt 0.506760 0.003380
vt 0.497834 0.003249
vt 0.502166 0.003249
vt 0.493239 0.003380
vt 0.254331 0.375000
vt 0.495669 0.000000
vt 0.750000 0.375000
vt 0.500000 0.000000
vt 0.250000 0.375000
vt 0.000000 0.000000
vt 0.250000 0.375000
vt 0.750000 0.375000
vt 0.500000 0.750000
vt 0.750000 0.375000
vt 1.000000 0.000000
vt 0.500000 0.000000
vt 0.500000 0.000000
vt 0.250000 0.375000
vn -0.931069 0.364844 0.000000
vn -0.947881 0.317293 -0.029118
vn -0.947879 0.317296 0.029118
vn -0.016814 -0.999435 -0.029118
vn 0.033622 -0.999435 0.000000
vn -0.016810 -0.999435 0.029118
vn 0.499154 0.317299 0.806330
vn 0.465537 0.364840 0.806330
vn 0.448725 0.317297 0.835445
vn 0.448720 0.317293 -0.835450
vn 0.465533 0.364849 -0.806328
vn 0.499161 0.317293 -0.806328
vn -0.410158 0.571824 0.710484
vn -0.406256 0.582849 0.703736
vn -0.816478 -0.577338 0.006750
vn -0.816478 -0.577338 -0.006752
vn 0.402402 -0.577309 0.710484
vn 0.414096 -0.577304 0.703736
vn 0.820376 0.571825 -0.000002
vn 0.812580 0.582849 -0.000002
vn 0.414072 -0.577373 -0.703693
vn 0.402381 -0.577368 -0.710448
vn -0.410220 0.571825 -0.710447
vn -0.406329 0.582849 -0.703693
vn -0.471408 -0.333336 0.816494
vn 0.942807 -0.333339 0.000000
vn -0.471376 -0.333314 -0.816521
vn -0.000007 1.000000 -0.000000
usemtl blinn6SG
f 21/31/1 13/19/2 3/4/3
f 17/25/4 11/16/5 5/7/6
f 9/13/7 23/34/8 1/1/9
f 15/22/10 19/28/11 7/10/12
f 3/4/3 2/2/13 22/33/14 21/31/1
f 2/3/13 1/1/9 23/34/8 22/32/14
f 5/7/6 4/5/15 18/27/16 17/25/4
f 4/6/15 3/4/3 13/19/2 18/26/16
f 1/1/9 6/8/17 10/15/18 9/13/7
f 6/9/17 5/7/6 11/16/5 10/14/18
f 9/13/7 8/11/19 24/36/20 23/34/8
f 8/12/19 7/10/12 19/28/11 24/35/20
f 7/10/12 12/17/21 16/24/22 15/22/10
f 12/18/21 11/16/5 17/25/4 16/23/22
f 15/22/10 14/20/23 20/30/24 19/28/11
f 14/21/23 13/19/2 21/31/1 20/29/24
f 6/8/17 1/1/9 2/3/13 25/39/25
f 2/2/13 3/4/3 4/6/15 25/37/25
f 4/5/15 5/7/6 6/9/17 25/38/25
f 12/17/21 7/10/12 8/12/19 26/42/26
f 8/11/19 9/13/7 10/15/18 26/40/26
f 10/14/18 11/16/5 12/18/21 26/41/26
f 18/26/16 13/19/2 14/21/23 27/45/27
f 14/20/23 15/22/10 16/24/22 27/43/27
f 16/23/22 17/25/4 18/27/16 27/44/27
f 24/35/20 19/28/11 20/30/24 28/48/28
f 20/29/24 21/31/1 22/33/14 28/46/28
f 22/32/14 23/34/8 24/36/20 28/47/28
