# This file uses centimeters as units for non-parametric coordinates.

mtllib d8_high.mtl
g default
v 3.530185 -0.120925 0.120925
v 3.580273 -0.120925 0.000002
v 3.530185 -0.120925 -0.120925
v 3.580274 0.000000 -0.120925
v 3.530185 0.120925 -0.120925
v 3.580273 0.120925 0.000002
v 3.530185 0.120925 0.120925
v 3.580274 0.000000 0.120925
v 0.120925 -0.120925 -3.530184
v 0.000000 -0.120925 -3.580273
v -0.120925 -0.120925 -3.530184
v -0.120925 0.000000 -3.580273
v -0.120925 0.120925 -3.530184
v 0.000000 0.120925 -3.580273
v 0.120925 0.120925 -3.530184
v 0.120925 0.000000 -3.580273
v -0.120925 3.530185 0.120925
v 0.000000 3.580274 0.120925
v 0.120925 3.530185 0.120925
v 0.120925 3.580273 0.000002
v 0.120925 3.530185 -0.120925
v 0.000000 3.580274 -0.120925
v -0.120925 3.530185 -0.120925
v -0.120925 3.580273 0.000002
v -3.530185 -0.120925 -0.120925
v -3.580273 -0.120925 0.000002
v -3.530185 -0.120925 0.120925
v -3.580274 0.000000 0.120925
v -3.530185 0.120925 0.120925
v -3.580273 0.120925 0.000002
v -3.530185 0.120925 -0.120925
v -3.580274 0.000000 -0.120925
v -0.120925 -0.120925 3.530184
v 0.000000 -0.120925 3.580273
v 0.120925 -0.120925 3.530184
v 0.120925 0.000000 3.580273
v 0.120925 0.120925 3.530184
v 0.000000 0.120925 3.580273
v -0.120925 0.120925 3.530184
v -0.120925 0.000000 3.580273
v 0.120925 -3.530185 0.120925
v 0.000000 -3.580274 0.120925
v -0.120925 -3.530185 0.120925
v -0.120925 -3.580273 0.000002
v -0.120925 -3.530185 -0.120925
v 0.000000 -3.580274 -0.120925
v 0.120925 -3.530185 -0.120925
v 0.120925 -3.580273 0.000002
v 3.630362 0.000000 0.000002
v 0.000000 0.000000 -3.630361
v 0.000000 3.630362 0.000002
v -3.630362 0.000000 0.000002
v 0.000000 0.000000 3.630361
v 0.000000 -3.630362 0.000002
vt 0.296686 0.630119
vt 0.278458 0.625000
vt 0.289342 0.631349
vt 0.275838 0.617962
vt 0.282185 0.616090
vt 0.286603 0.610717
vt 0.291053 0.615652
vt 0.297523 0.617083
vt 0.295127 0.623641
vt 0.143197 0.387155
vt 0.996372 0.381349
vt 0.139229 0.381349
vt 0.990068 0.380799
vt 0.575056 0.131349
vt 0.992744 0.375000
vt 0.571428 0.136597
vt 0.150113 0.375000
vt 0.567801 0.131349
vt 0.153134 0.381361
vt 0.147178 0.382548
vt 0.440337 0.382882
vt 0.433889 0.384299
vt 0.429438 0.389211
vt 0.425026 0.383868
vt 0.418697 0.382000
vt 0.432199 0.368651
vt 0.421316 0.375000
vt 0.439529 0.369870
vt 0.437956 0.376337
vt 0.724162 0.382038
vt 0.717815 0.383910
vt 0.713397 0.389283
vt 0.708947 0.384348
vt 0.702477 0.382917
vt 0.704873 0.376359
vt 0.703314 0.369881
vt 0.721542 0.375000
vt 0.710658 0.368651
vt 0.581303 0.618001
vt 0.567801 0.631349
vt 0.578684 0.625000
vt 0.560472 0.630130
vt 0.562045 0.623664
vt 0.559665 0.617119
vt 0.566113 0.615703
vt 0.570562 0.610791
vt 0.574974 0.616134
vt 0.428572 0.863402
vt 0.849887 0.625000
vt 0.432199 0.868651
vt 0.846865 0.618638
vt 0.852822 0.617451
vt 0.856803 0.612844
vt 0.003628 0.618651
vt 0.860771 0.618651
vt 0.009933 0.619201
vt 0.424944 0.868651
vt 0.007256 0.625000
vt 0.285714 0.625000
vt 0.571429 0.125000
vt 0.142857 0.375000
vt 1.000000 0.375000
vt 0.428571 0.375000
vt 0.714286 0.375000
vt 0.571429 0.625000
vt 0.857143 0.625000
vt 0.000000 0.625000
vt 0.428571 0.875000
vn 0.565002 -0.601288 -0.565001
vn 0.565001 -0.565001 -0.601288
vn 0.601288 -0.565002 -0.565001
vn 0.565001 0.565001 -0.601288
vn 0.565002 0.601288 -0.565001
vn 0.601288 0.565002 -0.565001
vn 0.565001 0.601287 0.565002
vn 0.565001 0.565001 0.601288
vn 0.601287 0.565001 0.565002
vn 0.565001 -0.565001 0.601288
vn 0.565001 -0.601287 0.565002
vn 0.601287 -0.565001 0.565002
vn -0.565002 -0.601288 -0.565001
vn -0.601288 -0.565002 -0.565001
vn -0.565001 -0.565001 -0.601288
vn -0.601288 0.565002 -0.565001
vn -0.565002 0.601288 -0.565001
vn -0.565001 0.565001 -0.601288
vn -0.601287 0.565001 0.565002
vn -0.565001 0.565001 0.601288
vn -0.565001 0.601287 0.565002
vn -0.565001 -0.601287 0.565002
vn -0.565001 -0.565001 0.601288
vn -0.601287 -0.565001 0.565002
vn 0.716395 -0.697694 -0.000001
vn 0.697694 -0.716395 -0.000001
vn 0.716396 0.000000 -0.697694
vn 0.697694 0.000000 -0.716396
vn 0.716395 0.697694 -0.000001
vn 0.697694 0.716395 -0.000001
vn 0.716395 0.000000 0.697695
vn 0.697694 0.000000 0.716396
vn 0.000000 -0.697694 -0.716396
vn 0.000000 -0.716396 -0.697694
vn -0.697694 0.000000 -0.716396
vn -0.716396 0.000000 -0.697694
vn 0.000000 0.697694 -0.716396
vn -0.000000 0.716396 -0.697694
vn 0.000000 0.716395 0.697695
vn 0.000000 0.697694 0.716396
vn -0.697694 0.716395 -0.000001
vn -0.716395 0.697694 -0.000001
vn -0.716395 -0.697694 -0.000001
vn -0.697694 -0.716395 -0.000001
vn -0.716395 0.000000 0.697695
vn -0.697694 0.000000 0.716396
vn 0.000000 -0.697694 0.716396
vn 0.000000 -0.716395 0.697695
vn 1.000000 0.000000 -0.000001
vn 0.000000 0.000000 -1.000000
vn 0.000000 1.000000 -0.000001
vn -1.000000 0.000000 -0.000001
vn 0.000000 0.000000 1.000000
vn 0.000000 -1.000000 -0.000001
s 1
g d8_smooth
usemtl blinn4SG
f 47/56/1 9/10/2 3/4/3
f 15/19/4 21/25/5 5/6/6
f 19/23/7 37/44/8 7/8/9
f 35/42/10 41/48/11 1/1/12
f 45/53/13 25/30/14 11/13/15
f 31/36/16 23/28/17 13/16/18
f 29/34/19 39/46/20 17/21/21
f 43/51/22 33/39/23 27/32/24
f 3/4/3 2/2/25 48/58/26 47/56/1
f 2/3/25 1/1/12 41/48/11 48/57/26
f 5/6/6 4/5/27 16/20/28 15/19/4
f 4/5/27 3/4/3 9/10/2 16/20/28
f 7/8/9 6/7/29 20/24/30 19/23/7
f 6/7/29 5/6/6 21/25/5 20/24/30
f 1/1/12 8/9/31 36/43/32 35/42/10
f 8/9/31 7/8/9 37/44/8 36/43/32
f 11/13/15 10/11/33 46/55/34 45/53/13
f 10/12/33 9/10/2 47/56/1 46/54/34
f 13/16/18 12/14/35 32/38/36 31/36/16
f 12/15/35 11/13/15 25/30/14 32/37/36
f 15/19/4 14/17/37 22/27/38 21/25/5
f 14/18/37 13/16/18 23/28/17 22/26/38
f 19/23/7 18/22/39 38/45/40 37/44/8
f 18/22/39 17/21/21 39/46/20 38/45/40
f 17/21/21 24/29/41 30/35/42 29/34/19
f 24/29/41 23/28/17 31/36/16 30/35/42
f 27/32/24 26/31/43 44/52/44 43/51/22
f 26/31/43 25/30/14 45/53/13 44/52/44
f 29/34/19 28/33/45 40/47/46 39/46/20
f 28/33/45 27/32/24 33/39/23 40/47/46
f 35/42/10 34/40/47 42/50/48 41/48/11
f 34/41/47 33/39/23 43/51/22 42/49/48
f 8/9/31 1/1/12 2/3/25 49/59/49
f 2/2/25 3/4/3 4/5/27 49/59/49
f 4/5/27 5/6/6 6/7/29 49/59/49
f 6/7/29 7/8/9 8/9/31 49/59/49
f 16/20/28 9/10/2 10/12/33 50/61/50
f 10/11/33 11/13/15 12/15/35 50/62/50
f 12/14/35 13/16/18 14/18/37 50/60/50
f 14/17/37 15/19/4 16/20/28 50/61/50
f 24/29/41 17/21/21 18/22/39 51/63/51
f 18/22/39 19/23/7 20/24/30 51/63/51
f 20/24/30 21/25/5 22/27/38 51/63/51
f 22/26/38 23/28/17 24/29/41 51/63/51
f 32/37/36 25/30/14 26/31/43 52/64/52
f 26/31/43 27/32/24 28/33/45 52/64/52
f 28/33/45 29/34/19 30/35/42 52/64/52
f 30/35/42 31/36/16 32/38/36 52/64/52
f 40/47/46 33/39/23 34/41/47 53/65/53
f 34/40/47 35/42/10 36/43/32 53/65/53
f 36/43/32 37/44/8 38/45/40 53/65/53
f 38/45/40 39/46/20 40/47/46 53/65/53
f 48/57/26 41/48/11 42/50/48 54/68/54
f 42/49/48 43/51/22 44/52/44 54/66/54
f 44/52/44 45/53/13 46/55/34 54/66/54
f 46/54/34 47/56/1 48/58/26 54/67/54
