# This file uses centimeters as units for non-parametric coordinates.

mtllib fa-check.mtl
v -0.106886 -0.053735 0.057577
v 0.457644 0.213766 0.057577
v 0.320604 0.350757 0.057577
v -0.457644 0.000033 0.057577
v -0.106924 -0.350757 0.057577
v -0.320659 0.137001 0.057577
v -0.363205 -0.118062 0.057577
v -0.363251 0.118113 0.057577
v 0.409817 0.285206 0.057577
v 0.409822 0.142326 0.057577
v 0.457429 0.218653 0.057577
v 0.409822 0.218653 0.057577
v 0.156805 -0.110693 0.057577
v -0.363206 -0.110693 0.057577
v 0.078524 -0.188975 0.057577
v 0.078524 -0.110693 0.057577
v -0.142331 -0.338398 0.057577
v -0.142341 -0.110693 0.057577
v -0.062689 -0.330278 0.057577
v -0.142341 -0.330256 0.057577
v 0.047024 -0.220474 0.057577
v -0.142341 -0.220474 0.057577
v -0.031908 -0.299405 0.057577
v -0.031908 -0.220474 0.057577
v -0.031908 -0.110693 0.057577
v -0.151008 -0.330256 0.057577
v -0.260793 -0.220474 0.057577
v -0.252772 -0.228494 0.057577
v -0.252773 -0.220474 0.057577
v -0.252773 -0.110693 0.057577
v 0.078524 0.131959 0.057577
v 0.165086 0.218653 0.057577
v 0.239848 -0.027649 0.057577
v 0.078524 -0.027649 0.057577
v 0.188956 -0.078541 0.057577
v 0.188956 -0.027649 0.057577
v 0.299389 0.218653 0.057577
v 0.299389 0.031892 0.057577
v 0.376367 0.108871 0.057577
v 0.299389 0.108871 0.057577
v 0.078524 0.108871 0.057577
v 0.188956 0.108871 0.057577
v 0.188956 0.218653 0.057577
v 0.274658 0.328444 0.057577
v 0.366609 0.328447 0.057577
v 0.299389 0.328435 0.057577
v 0.188956 0.242561 0.057577
v 0.299387 0.346658 0.057577
v -0.142342 -0.018160 0.057577
v -0.080840 -0.027649 0.057577
v -0.142341 -0.027649 0.057577
v -0.132884 -0.027650 0.057577
v -0.031908 -0.027649 0.057577
v 0.055471 0.108871 0.057577
v -0.031908 0.021358 0.057577
v -0.363206 -0.027649 0.057577
v -0.252773 -0.027649 0.057577
v -0.363206 0.108871 0.057577
v -0.268864 0.108876 0.057577
v -0.252749 0.092674 0.057577
v -0.370574 -0.110693 0.057577
v -0.450492 -0.027650 0.057577
v -0.372401 0.108871 0.057577
v -0.372401 0.108871 -0.057577
v -0.363251 0.118113 -0.057577
v -0.363206 0.108871 -0.057577
v -0.320659 0.137001 -0.057577
v -0.268864 0.108876 -0.057577
v 0.409817 0.285206 -0.057577
v 0.457429 0.218653 -0.057577
v 0.409822 0.218653 -0.057577
v 0.457644 0.213766 -0.057577
v 0.409822 0.142326 -0.057577
v -0.260793 -0.220474 -0.057577
v -0.363205 -0.118062 -0.057577
v -0.363206 -0.110693 -0.057577
v -0.252773 -0.110693 -0.057577
v -0.252773 -0.220474 -0.057577
v 0.156805 -0.110693 -0.057577
v 0.078524 -0.188975 -0.057577
v 0.078524 -0.110693 -0.057577
v -0.031908 -0.220474 -0.057577
v -0.142341 -0.220474 -0.057577
v -0.142341 -0.110693 -0.057577
v -0.031908 -0.110693 -0.057577
v -0.062689 -0.330278 -0.057577
v -0.106924 -0.350757 -0.057577
v -0.142331 -0.338398 -0.057577
v -0.142341 -0.330256 -0.057577
v -0.031908 -0.299405 -0.057577
v 0.047024 -0.220474 -0.057577
v -0.151008 -0.330256 -0.057577
v -0.252772 -0.228494 -0.057577
v 0.274658 0.328444 -0.057577
v 0.299387 0.346658 -0.057577
v 0.299389 0.328435 -0.057577
v 0.078524 0.131959 -0.057577
v 0.165086 0.218653 -0.057577
v 0.188956 0.218653 -0.057577
v 0.188956 0.108871 -0.057577
v 0.078524 0.108871 -0.057577
v 0.188956 -0.078541 -0.057577
v 0.078524 -0.027649 -0.057577
v 0.188956 -0.027649 -0.057577
v 0.239848 -0.027649 -0.057577
v 0.299389 0.218653 -0.057577
v 0.376367 0.108871 -0.057577
v 0.299389 0.108871 -0.057577
v 0.299389 0.031892 -0.057577
v 0.188956 0.242561 -0.057577
v 0.366609 0.328447 -0.057577
v 0.320604 0.350757 -0.057577
v 0.055471 0.108871 -0.057577
v -0.106886 -0.053735 -0.057577
v -0.080840 -0.027649 -0.057577
v -0.031908 -0.027649 -0.057577
v -0.142341 -0.027649 -0.057577
v -0.132884 -0.027650 -0.057577
v -0.031908 0.021358 -0.057577
v -0.363206 -0.027649 -0.057577
v -0.252773 -0.027649 -0.057577
v -0.252749 0.092674 -0.057577
v -0.142342 -0.018160 -0.057577
v -0.370574 -0.110693 -0.057577
v -0.450492 -0.027650 -0.057577
v -0.457644 0.000033 -0.057577
vt 0.910572 4.799513
vt 0.900434 4.809651
vt 0.900434 4.799513
vt 0.853527 4.830526
vt 0.796432 4.799513
vt 0.048205 4.993919
vt -0.004280 4.920543
vt 0.048205 4.920543
vt -0.004517 4.915155
vt 0.048205 4.836395
vt 0.787528 4.436425
vt 0.900434 4.549331
vt 0.900434 4.557455
vt 0.778687 4.557455
vt 0.778687 4.436425
vt 0.327145 4.557455
vt 0.413446 4.471152
vt 0.413446 4.557455
vt 0.535193 4.436425
vt 0.656940 4.436425
vt 0.656940 4.557455
vt 0.535193 4.557455
vt 0.569151 4.315396
vt 0.617895 4.292797
vt 0.656940 4.306407
vt 0.656940 4.315396
vt 0.535193 4.349408
vt 0.448173 4.436425
vt 0.666495 4.315396
vt 0.778687 4.427584
vt 0.197206 5.041572
vt 0.169952 5.061656
vt 0.169952 5.041572
vt 0.413446 4.824967
vt 0.318016 4.920543
vt 0.291699 4.920543
vt 0.291699 4.799513
vt 0.413446 4.799513
vt 0.291699 4.592900
vt 0.413446 4.649006
vt 0.291699 4.649006
vt 0.235593 4.649006
vt 0.169952 4.920543
vt 0.085087 4.799513
vt 0.169952 4.799513
vt 0.169952 4.714648
vt 0.291699 4.946899
vt 0.095858 5.041572
vt 0.146563 5.066183
vt 0.438861 4.799513
vt 0.617853 4.620248
vt 0.589138 4.649006
vt 0.535193 4.649006
vt 0.656940 4.649006
vt 0.646513 4.649006
vt 0.535193 4.703034
vt 0.900434 4.649006
vt 0.778687 4.649006
vt 0.778687 4.781631
vt 0.656940 4.659469
vt 0.908558 4.557455
vt 0.996661 4.649006
vt 1.004551 4.679524
vt 0.910572 4.799513
vt 0.900434 4.799513
vt 0.900434 4.809651
vt 0.796432 4.799513
vt 0.853527 4.830526
vt 0.048205 4.993919
vt 0.048205 4.920543
vt -0.004280 4.920543
vt 0.048205 4.836395
vt -0.004517 4.915155
vt 0.787528 4.436425
vt 0.778687 4.436425
vt 0.778687 4.557455
vt 0.900434 4.557455
vt 0.900434 4.549331
vt 0.327145 4.557455
vt 0.413446 4.557455
vt 0.413446 4.471152
vt 0.535193 4.436425
vt 0.535193 4.557455
vt 0.656940 4.557455
vt 0.656940 4.436425
vt 0.569151 4.315396
vt 0.656940 4.315396
vt 0.656940 4.306407
vt 0.617895 4.292797
vt 0.535193 4.349408
vt 0.448173 4.436425
vt 0.666495 4.315396
vt 0.778687 4.427584
vt 0.197206 5.041572
vt 0.169952 5.041572
vt 0.169952 5.061656
vt 0.413446 4.824967
vt 0.413446 4.799513
vt 0.291699 4.799513
vt 0.291699 4.920543
vt 0.318016 4.920543
vt 0.291699 4.592900
vt 0.291699 4.649006
vt 0.413446 4.649006
vt 0.235593 4.649006
vt 0.169952 4.920543
vt 0.169952 4.799513
vt 0.085087 4.799513
vt 0.169952 4.714648
vt 0.291699 4.946899
vt 0.095858 5.041572
vt 0.146563 5.066183
vt 0.438861 4.799513
vt 0.617853 4.620248
vt 0.646513 4.649006
vt 0.656940 4.649006
vt 0.535193 4.649006
vt 0.589138 4.649006
vt 0.535193 4.703034
vt 0.778687 4.649006
vt 0.900434 4.649006
vt 0.778687 4.781631
vt 0.656940 4.659469
vt 0.908558 4.557455
vt 0.996661 4.649006
vt 1.004551 4.679524
vt 0.910572 4.799513
vt 0.900434 4.809651
vt 0.853527 4.830526
vt 0.796432 4.799513
vt 0.048205 4.993919
vt -0.004280 4.920543
vt -0.004517 4.915155
vt 0.048205 4.836395
vt 0.787528 4.436425
vt 0.900434 4.549331
vt 0.327145 4.557455
vt 0.413446 4.471152
vt 0.569151 4.315396
vt 0.617895 4.292797
vt 0.656940 4.306407
vt 0.535193 4.349408
vt 0.448173 4.436425
vt 0.666495 4.315396
vt 0.778687 4.427584
vt 0.197206 5.041572
vt 0.169952 5.061656
vt 0.413446 4.824967
vt 0.318016 4.920543
vt 0.291699 4.592900
vt 0.235593 4.649006
vt 0.085087 4.799513
vt 0.169952 4.714648
vt 0.291699 4.946899
vt 0.095858 5.041572
vt 0.146563 5.066183
vt 0.438861 4.799513
vt 0.617853 4.620248
vt 0.589138 4.649006
vt 0.646513 4.649006
vt 0.535193 4.703034
vt 0.778687 4.781631
vt 0.656940 4.659469
vt 0.908558 4.557455
vt 0.996661 4.649006
vt 1.004551 4.679524
vn 0.000001 -0.000000 -1.000000
vn -0.000000 0.000000 -1.000000
vn 0.000000 -0.000000 -1.000000
vn -0.000000 0.000000 -1.000000
vn -0.000000 -0.000000 -1.000000
vn -0.000000 -0.000000 -1.000000
vn -0.000000 -0.000000 -1.000000
vn -0.000000 -0.000000 -1.000000
vn -0.000000 -0.000000 -1.000000
vn -0.000000 0.000000 -1.000000
vn 0.000000 0.000000 -1.000000
vn -0.000000 0.000000 -1.000000
vn 0.000000 0.000000 -1.000000
vn 0.000000 0.000000 -1.000000
vn 0.000000 0.000000 -1.000000
vn -0.000000 0.000000 -1.000000
vn -0.000000 0.000000 -1.000000
vn 0.000000 0.000000 -1.000000
vn -0.000000 0.000000 -1.000000
vn 0.000000 0.000000 -1.000000
vn -0.000000 -0.000000 -1.000000
vn 0.000000 -0.000000 -1.000000
vn -0.000000 0.000000 -1.000000
vn -0.000000 0.000000 -1.000000
vn 0.000000 0.000000 -1.000000
vn 0.000000 0.000001 -1.000000
vn 0.000000 0.000000 -1.000000
vn -0.000000 0.000000 -1.000000
vn 0.000000 0.000000 -1.000000
vn 0.000000 0.000000 -1.000000
vn 0.000001 0.000000 -1.000000
vn -0.000000 0.000000 -1.000000
vn 0.000000 0.000000 -1.000000
vn -0.000000 0.000000 -1.000000
vn 0.000000 0.000000 -1.000000
vn 0.000000 0.000000 -1.000000
vn 0.000000 0.000000 -1.000000
vn 0.000000 0.000000 -1.000000
vn -0.000000 0.000000 -1.000000
vn -0.000000 0.000000 -1.000000
vn 0.000000 0.000000 -1.000000
vn 0.000000 0.000000 -1.000000
vn -0.000000 -0.000000 -1.000000
vn 0.000000 0.000000 -1.000000
vn 0.000000 0.000000 -1.000000
vn 0.000000 0.000000 -1.000000
vn -0.000000 0.000000 -1.000000
vn -0.000000 0.000000 -1.000000
vn 0.000000 0.000000 -1.000000
vn 0.000000 0.000000 -1.000000
vn 0.000000 -0.000000 -1.000000
vn 0.000000 -0.000000 -1.000000
vn 0.000000 0.000000 -1.000000
vn -0.000000 -0.000000 -1.000000
vn 0.000000 -0.000000 -1.000000
vn 0.000000 -0.000000 -1.000000
vn -0.000000 -0.000000 -1.000000
vn 0.000000 0.000000 -1.000000
vn -0.000000 -0.000000 -1.000000
vn -0.000000 -0.000000 -1.000000
vn 0.000000 0.000000 -1.000000
vn 0.000000 0.000000 -1.000000
vn 0.000000 -0.000000 -1.000000
vn 0.000000 0.000000 1.000000
vn 0.000000 0.000000 1.000000
vn 0.000000 0.000000 1.000000
vn 0.000000 0.000000 1.000000
vn 0.000000 0.000000 1.000000
vn 0.000000 0.000000 1.000000
vn 0.000000 0.000000 1.000000
vn 0.000000 0.000000 1.000000
vn 0.000000 0.000000 1.000000
vn 0.000000 0.000000 1.000000
vn 0.000000 0.000000 1.000000
vn 0.000000 0.000000 1.000000
vn 0.000000 0.000000 1.000000
vn 0.000000 0.000000 1.000000
vn 0.000000 0.000000 1.000000
vn 0.000000 0.000000 1.000000
vn 0.000000 0.000000 1.000000
vn 0.000000 0.000000 1.000000
vn 0.000000 0.000000 1.000000
vn 0.000000 0.000000 1.000000
vn 0.000000 0.000000 1.000000
vn 0.000000 0.000000 1.000000
vn 0.000000 0.000000 1.000000
vn 0.000000 0.000000 1.000000
vn 0.000000 0.000000 1.000000
vn 0.000000 0.000000 1.000000
vn 0.000000 0.000000 1.000000
vn 0.000000 0.000000 1.000000
vn 0.000000 0.000000 1.000000
vn 0.000000 0.000000 1.000000
vn 0.000000 0.000000 1.000000
vn 0.000000 0.000000 1.000000
vn 0.000000 0.000000 1.000000
vn 0.000000 0.000000 1.000000
vn 0.000000 0.000000 1.000000
vn 0.000000 0.000000 1.000000
vn 0.000000 0.000000 1.000000
vn 0.000000 0.000000 1.000000
vn 0.000000 0.000000 1.000000
vn 0.000000 0.000000 1.000000
vn 0.000000 0.000000 1.000000
vn 0.000000 0.000000 1.000000
vn 0.000000 0.000000 1.000000
vn 0.000000 0.000000 1.000000
vn 0.000000 0.000000 1.000000
vn 0.000000 0.000000 1.000000
vn 0.000000 0.000000 1.000000
vn 0.000000 0.000000 1.000000
vn 0.000000 0.000000 1.000000
vn 0.000000 0.000000 1.000000
vn 0.000000 0.000000 1.000000
vn 0.000000 0.000000 1.000000
vn 0.000000 0.000000 1.000000
vn 0.000000 0.000000 1.000000
vn 0.000000 0.000000 1.000000
vn 0.000000 0.000000 1.000000
vn 0.000000 0.000000 1.000000
vn 0.000000 0.000000 1.000000
vn 0.000000 0.000000 1.000000
vn 0.000000 0.000000 1.000000
vn 0.000000 0.000000 1.000000
vn 0.000000 0.000000 1.000000
vn 0.000000 0.000000 1.000000
vn -0.781095 0.624412 0.000000
vn -0.477619 0.878567 0.000000
vn -0.781097 0.624410 0.000000
vn -0.477649 0.878551 0.000000
vn -0.405392 0.914143 0.000000
vn -0.405405 0.914137 0.000000
vn 0.477181 0.878805 0.000000
vn 0.546584 0.837404 0.000000
vn 0.477199 0.878796 0.000000
vn 0.546619 0.837381 0.000000
vn 0.770539 0.637393 0.000000
vn 0.813303 0.581841 0.000000
vn 0.770552 0.637378 0.000000
vn 0.813317 0.581821 0.000000
vn 0.999031 0.044022 0.000000
vn 0.999031 0.044019 0.000000
vn 0.999034 0.043936 0.000000
vn 0.999035 0.043934 0.000000
vn 0.830996 -0.556278 0.000000
vn 0.790477 -0.612491 0.000000
vn 0.831003 -0.556268 0.000000
vn 0.790482 -0.612486 0.000000
vn -0.707096 -0.707117 0.000000
vn -0.707106 -0.707107 0.000000
vn -0.707107 -0.707106 0.000000
vn -0.707113 -0.707100 0.000000
vn 0.707107 -0.707107 0.000000
vn 0.707105 -0.707109 0.000000
vn 0.707110 -0.707103 0.000000
vn 0.707113 -0.707100 0.000000
vn 0.564876 -0.825176 0.000000
vn 0.420115 -0.907471 0.000000
vn 0.564867 -0.825182 0.000000
vn 0.420115 -0.907471 0.000000
vn -0.329550 -0.944138 0.000000
vn -0.421684 -0.906743 0.000000
vn -0.329536 -0.944143 0.000000
vn -0.421656 -0.906756 0.000000
vn 0.707405 -0.706808 0.000000
vn 0.707400 -0.706813 0.000000
vn 0.707099 -0.707114 0.000000
vn 0.707104 -0.707109 0.000000
vn -0.705386 -0.708824 0.000000
vn -0.705380 -0.708830 0.000000
vn -0.707096 -0.707117 0.000000
vn -0.707102 -0.707111 0.000000
vn -0.685938 0.727660 0.000000
vn -0.436843 0.899538 0.000000
vn -0.685926 0.727671 0.000000
vn -0.436830 0.899544 0.000000
vn -0.707648 0.706565 0.000000
vn -0.707647 0.706566 0.000000
vn -0.707645 0.706568 0.000000
vn -0.707644 0.706570 0.000000
vn 0.707109 -0.707105 0.000000
vn 0.707109 -0.707105 0.000000
vn 0.707109 -0.707105 0.000000
vn 0.707113 -0.707100 0.000000
vn 0.707114 -0.707100 0.000000
vn 0.707110 -0.707104 0.000000
vn 0.707106 -0.707107 0.000000
vn 0.707107 -0.707106 0.000000
vn -0.707819 0.706394 0.000000
vn -0.707813 0.706400 0.000000
vn 0.592119 0.805850 0.000000
vn 0.592117 0.805852 0.000000
vn -0.189652 0.981851 0.000000
vn -0.189652 0.981851 0.000000
vn 0.436363 0.899771 0.000000
vn 0.436351 0.899777 0.000000
vn -0.707648 0.706565 0.000000
vn -0.707652 0.706561 0.000000
vn -0.707672 0.706541 0.000000
vn -0.707657 0.706556 0.000000
vn -0.707644 0.706569 0.000000
vn -0.707641 0.706573 0.000000
vn 0.708284 0.705928 0.000000
vn 0.708296 0.705916 0.000000
vn 0.708293 0.705919 0.000000
vn 0.708256 0.705956 0.000000
vn -0.707643 0.706570 0.000000
vn -0.707643 0.706570 0.000000
vn 0.708533 0.705678 0.000000
vn 0.708546 0.705665 0.000000
vn 0.708450 0.705761 0.000000
vn 0.708464 0.705747 0.000000
vn -0.719425 -0.694570 0.000000
vn -0.719432 -0.694563 0.000000
vn -0.786066 -0.618142 0.000000
vn -0.786082 -0.618123 0.000000
vn -0.968203 -0.250167 0.000000
vn -0.968232 -0.250052 0.000000
vn -0.787286 0.616588 0.000000
vn -0.787280 0.616596 0.000000
s 1
usemtl initialShadingGroup
f 64/1/1 65/2/2 66/3/3
f 65/2/2 67/4/4 66/3/3
f 66/3/3 67/4/4 68/5/5
f 69/6/6 70/7/7 71/8/8
f 70/7/7 72/9/9 71/8/8
f 72/9/9 73/10/10 71/8/8
f 76/13/11 77/14/12 75/12/13
f 78/15/14 74/11/15 77/14/12
f 74/11/15 75/12/13 77/14/12
f 79/16/16 80/17/17 81/18/18
f 82/19/19 83/20/20 85/22/21
f 85/22/21 83/20/20 84/21/22
f 86/23/23 87/24/24 89/26/25
f 89/26/25 87/24/24 88/25/26
f 83/20/20 82/19/19 89/26/25
f 89/26/25 82/19/19 86/23/23
f 90/27/27 86/23/23 82/19/19
f 91/28/28 90/27/27 82/19/19
f 82/19/19 85/22/21 91/28/28
f 91/28/28 85/22/21 80/17/17
f 80/17/17 85/22/21 81/18/18
f 88/25/26 92/29/29 89/26/25
f 93/30/30 74/11/15 78/15/14
f 78/15/14 83/20/20 93/30/30
f 89/26/25 92/29/29 83/20/20
f 92/29/29 93/30/30 83/20/20
f 77/14/12 84/21/22 78/15/14
f 78/15/14 84/21/22 83/20/20
f 94/31/31 95/32/32 96/33/33
f 99/36/34 100/37/35 98/35/36
f 101/38/37 97/34/38 100/37/35
f 97/34/38 98/35/36 100/37/35
f 81/18/18 103/40/39 79/16/16
f 79/16/16 103/40/39 102/39/40
f 102/39/40 103/40/39 104/41/41
f 105/42/42 102/39/40 104/41/41
f 106/43/43 71/8/8 108/45/44
f 71/8/8 73/10/10 108/45/44
f 73/10/10 107/44/45 108/45/44
f 107/44/45 109/46/46 108/45/44
f 104/41/41 103/40/39 100/37/35
f 100/37/35 103/40/39 101/38/37
f 108/45/44 109/46/46 100/37/35
f 109/46/46 105/42/42 100/37/35
f 105/42/42 104/41/41 100/37/35
f 99/36/34 106/43/43 100/37/35
f 100/37/35 106/43/43 108/45/44
f 98/35/36 110/47/47 99/36/34
f 71/8/8 106/43/43 69/6/6
f 69/6/6 106/43/43 111/48/48
f 96/33/33 111/48/48 106/43/43
f 106/43/43 99/36/34 96/33/33
f 96/33/33 99/36/34 94/31/31
f 110/47/47 94/31/31 99/36/34
f 95/32/32 112/49/49 96/33/33
f 96/33/33 112/49/49 111/48/48
f 113/50/50 97/34/38 101/38/37
f 116/53/51 85/22/21 115/52/52
f 85/22/21 84/21/22 115/52/52
f 115/52/52 84/21/22 114/51/53
f 117/54/54 118/55/55 84/21/22
f 114/51/53 84/21/22 118/55/55
f 116/53/51 103/40/39 85/22/21
f 85/22/21 103/40/39 81/18/18
f 115/52/52 119/56/56 116/53/51
f 101/38/37 103/40/39 113/50/50
f 113/50/50 103/40/39 119/56/56
f 119/56/56 103/40/39 116/53/51
f 77/14/12 76/13/11 121/58/57
f 121/58/57 76/13/11 120/57/58
f 84/21/22 77/14/12 117/54/54
f 117/54/54 77/14/12 121/58/57
f 120/57/58 66/3/3 121/58/57
f 121/58/57 66/3/3 122/59/59
f 66/3/3 68/5/5 122/59/59
f 117/54/54 121/58/57 123/60/60
f 122/59/59 123/60/60 121/58/57
f 75/12/13 124/61/61 76/13/11
f 76/13/11 124/61/61 120/57/58
f 124/61/61 125/62/62 120/57/58
f 66/3/3 120/57/58 64/1/1
f 125/62/62 126/63/63 120/57/58
f 126/63/63 64/1/1 120/57/58
f 117/54/54 123/60/60 118/55/55
s 13
f 63/64/64 58/65/65 8/66/66
f 59/67/67 6/68/68 58/65/65
f 58/65/65 6/68/68 8/66/66
f 9/69/69 12/70/70 11/71/71
f 11/71/71 12/70/70 2/73/72
f 12/70/70 10/72/73 2/73/72
f 29/75/74 30/76/75 27/74/76
f 14/77/77 7/78/78 30/76/75
f 27/74/76 30/76/75 7/78/78
f 13/79/79 16/80/80 15/81/81
f 24/82/82 25/83/83 22/85/84
f 22/85/84 25/83/83 18/84/85
f 19/86/86 20/87/87 5/89/88
f 5/89/88 20/87/87 17/88/89
f 24/82/82 22/85/84 23/90/90
f 23/90/90 22/85/84 19/86/86
f 22/85/84 20/87/87 19/86/86
f 21/91/91 24/82/82 23/90/90
f 16/80/80 25/83/83 15/81/81
f 15/81/81 25/83/83 21/91/91
f 25/83/83 24/82/82 21/91/91
f 17/88/89 20/87/87 26/92/92
f 28/93/93 29/75/74 27/74/76
f 20/87/87 22/85/84 26/92/92
f 29/75/74 28/93/93 22/85/84
f 26/92/92 22/85/84 28/93/93
f 30/76/75 29/75/74 18/84/85
f 18/84/85 29/75/74 22/85/84
f 44/94/94 46/95/95 48/96/96
f 41/98/97 42/99/98 31/97/99
f 43/100/100 32/101/101 42/99/98
f 31/97/99 42/99/98 32/101/101
f 36/103/102 34/104/103 35/102/104
f 35/102/104 34/104/103 13/79/79
f 34/104/103 16/80/80 13/79/79
f 33/105/105 36/103/102 35/102/104
f 37/106/106 40/107/107 12/70/70
f 40/107/107 39/108/108 12/70/70
f 39/108/108 10/72/73 12/70/70
f 39/108/108 40/107/107 38/109/109
f 36/103/102 42/99/98 34/104/103
f 34/104/103 42/99/98 41/98/97
f 40/107/107 42/99/98 38/109/109
f 38/109/109 42/99/98 33/105/105
f 42/99/98 36/103/102 33/105/105
f 43/100/100 42/99/98 37/106/106
f 37/106/106 42/99/98 40/107/107
f 32/101/101 43/100/100 47/110/110
f 37/106/106 12/70/70 46/95/95
f 46/95/95 12/70/70 45/111/111
f 12/70/70 9/69/69 45/111/111
f 43/100/100 37/106/106 47/110/110
f 46/95/95 44/94/94 37/106/106
f 47/110/110 37/106/106 44/94/94
f 48/96/96 46/95/95 3/112/112
f 3/112/112 46/95/95 45/111/111
f 54/113/113 41/98/97 31/97/99
f 51/116/114 18/84/85 52/115/115
f 52/115/115 18/84/85 1/114/116
f 18/84/85 25/83/83 1/114/116
f 1/114/116 25/83/83 50/118/117
f 25/83/83 53/117/118 50/118/117
f 53/117/118 25/83/83 34/104/103
f 34/104/103 25/83/83 16/80/80
f 50/118/117 53/117/118 55/119/119
f 53/117/118 34/104/103 55/119/119
f 41/98/97 54/113/113 34/104/103
f 55/119/119 34/104/103 54/113/113
f 30/76/75 57/120/120 14/77/77
f 14/77/77 57/120/120 56/121/121
f 18/84/85 51/116/114 30/76/75
f 30/76/75 51/116/114 57/120/120
f 56/121/121 57/120/120 58/65/65
f 57/120/120 60/122/122 58/65/65
f 60/122/122 59/67/67 58/65/65
f 51/116/114 49/123/123 57/120/120
f 60/122/122 57/120/120 49/123/123
f 7/78/78 14/77/77 61/124/124
f 14/77/77 56/121/121 61/124/124
f 61/124/124 56/121/121 62/125/125
f 58/65/65 63/64/64 56/121/121
f 62/125/125 56/121/121 4/126/126
f 56/121/121 63/64/64 4/126/126
f 51/116/114 52/115/115 49/123/123
s 25
f 63/127/127 8/128/128 64/1/129
f 64/1/129 8/128/128 65/2/130
f 8/128/128 6/129/131 65/2/130
f 65/2/130 6/129/131 67/4/132
s 26
f 6/129/133 59/130/134 67/4/135
f 67/4/135 59/130/134 68/5/136
s 27
f 9/131/137 11/132/138 69/6/139
f 69/6/139 11/132/138 70/7/140
s 28
f 11/132/141 2/133/142 70/7/143
f 70/7/143 2/133/142 72/9/144
s 29
f 2/133/145 10/134/146 72/9/147
f 72/9/147 10/134/146 73/10/148
s 30
f 27/135/149 7/136/150 74/11/151
f 74/11/151 7/136/150 75/12/152
s 29
f 13/137/153 15/138/154 79/16/155
f 79/16/155 15/138/154 80/17/156
f 19/139/157 5/140/158 86/23/159
f 86/23/159 5/140/158 87/24/160
s 30
f 5/140/161 17/141/162 87/24/163
f 87/24/163 17/141/162 88/25/164
s 29
f 23/142/165 19/139/157 90/27/166
f 90/27/166 19/139/157 86/23/159
f 21/143/167 23/142/165 91/28/168
f 91/28/168 23/142/165 90/27/166
f 15/138/154 21/143/167 80/17/156
f 80/17/156 21/143/167 91/28/168
s 30
f 17/141/162 26/144/169 88/25/164
f 88/25/164 26/144/169 92/29/170
f 28/145/171 27/135/149 93/30/172
f 93/30/172 27/135/149 74/11/151
f 26/144/169 28/145/171 92/29/170
f 92/29/170 28/145/171 93/30/172
s 34
f 44/146/173 48/147/174 94/31/175
f 94/31/175 48/147/174 95/32/176
f 31/148/177 32/149/178 97/34/179
f 97/34/179 32/149/178 98/35/180
s 29
f 35/150/181 13/137/153 102/39/182
f 102/39/182 13/137/153 79/16/155
f 33/151/183 35/150/181 105/42/184
f 105/42/184 35/150/181 102/39/182
f 10/134/146 39/152/185 73/10/148
f 73/10/148 39/152/185 107/44/186
f 39/152/185 38/153/187 107/44/186
f 107/44/186 38/153/187 109/46/188
f 38/153/187 33/151/183 109/46/188
f 109/46/188 33/151/183 105/42/184
s 34
f 32/149/178 47/154/189 98/35/180
f 98/35/180 47/154/189 110/47/190
s 27
f 45/155/191 9/131/137 111/48/192
f 111/48/192 9/131/137 69/6/139
s 34
f 47/154/189 44/146/173 110/47/190
f 110/47/190 44/146/173 94/31/175
f 48/147/174 3/156/193 95/32/176
f 95/32/176 3/156/193 112/49/194
s 27
f 3/156/195 45/155/191 112/49/196
f 112/49/196 45/155/191 111/48/192
s 34
f 54/157/197 31/148/177 113/50/198
f 113/50/198 31/148/177 97/34/179
f 1/158/199 50/159/200 114/51/201
f 114/51/201 50/159/200 115/52/202
s 26
f 52/160/203 1/158/204 118/55/205
f 118/55/205 1/158/204 114/51/206
s 34
f 50/159/200 55/161/207 115/52/202
f 115/52/202 55/161/207 119/56/208
f 55/161/207 54/157/197 119/56/208
f 119/56/208 54/157/197 113/50/198
s 26
f 59/130/134 60/162/209 68/5/136
f 68/5/136 60/162/209 122/59/210
f 60/162/209 49/163/211 122/59/210
f 122/59/210 49/163/211 123/60/212
s 30
f 7/136/150 61/164/213 75/12/152
f 75/12/152 61/164/213 124/61/214
f 61/164/213 62/165/215 124/61/214
f 124/61/214 62/165/215 125/62/216
f 62/165/215 4/166/217 125/62/216
f 125/62/216 4/166/217 126/63/218
s 25
f 4/166/219 63/127/127 126/63/220
f 126/63/220 63/127/127 64/1/129
s 26
f 49/163/211 52/160/203 123/60/212
f 123/60/212 52/160/203 118/55/205
